<svg fill="none" height="16" viewBox="0 0 14 16" width="14" xmlns="http://www.w3.org/2000/svg"><path d="m6.43262 2.88647v-1.63378h.93652v1.63378zm0 2.50196v-1.81153h.93652v1.81153zm0 2.30371v-1.60645h.93652v1.60645zm-1.20313 1.80469-.41699-.84082 1.45605-.73145.42383.84082zm-2.24219 1.11427-.41699-.84084 1.61328-.80664.417.84082zm-2.064448 1.0254-.423829-.8408 1.442387-.7247.42382.8409zm6.186528-2.87112.42382-.84082 1.45606.73145-.41699.84082zm2.09179 1.03906.41699-.84082 1.62014.80664-.417.84084zm2.23533 1.10746.4307-.8409 1.4355.7247-.4238.8408zm-10.479469 1.333c-.309896-.1778-.546875-.3828-.710937-.6153-.1640628-.2324-.246094-.5924-.246094-1.08v-5.4141c0-.35547.0660807-.64942.198242-.88184.136719-.23698.350912-.4375.642578-.60156l4.83301-2.748047c.41471-.236979.82487-.355469 1.23047-.355469s.81347.11849 1.22363.355469l4.83987 2.748047c.2871.16406.4967.36458.6289.60156.1367.23242.2051.52637.2051.88184v5.4141c0 .4876-.0821.8476-.2461 1.08-.1595.2325-.3965.4375-.711.6153l-5.37302 3.0488c-.37826.2142-.75651.2142-1.13477 0zm.615239-.9024 4.79199 2.7276v-5.67386l-5.3252-3.04199v5.16115c0 .1868.03874.3441.11621.4717.07748.1276.21647.2461.417.3554zm10.66403 0c.196-.1093.3327-.2278.4102-.3554s.1162-.2849.1162-.4717v-5.16115l-5.3252 3.04199v5.67386zm-5.332-3.90329 5.2773-2.98731-4.50484-2.57031c-.51042-.29622-1.02539-.29622-1.54492 0l-4.50489 2.57031z" fill="#fff"/></svg>