<svg width="669" height="171" viewBox="0 0 669 171" fill="none" xmlns="http://www.w3.org/2000/svg">
<path d="M19.0352 74L0.382812 3.54102H15.666L26.7988 54.0293H27.0918L40.0801 3.54102H53.0195L66.0078 54.0293H66.3008L77.4824 3.54102H92.7656L74.0645 74H59.6602L46.7207 26.7832H46.4277L33.4395 74H19.0352Z" fill="black"/>
<path d="M112.473 75.0742C107.134 75.0742 102.544 73.9837 98.7031 71.8027C94.862 69.5892 91.8997 66.4479 89.8164 62.3789C87.7656 58.3099 86.7402 53.4922 86.7402 47.9258V47.877C86.7402 42.3105 87.7656 37.4928 89.8164 33.4238C91.8997 29.3223 94.8132 26.1647 98.5566 23.9512C102.333 21.7051 106.776 20.582 111.887 20.582C116.997 20.582 121.408 21.6725 125.119 23.8535C128.863 26.002 131.743 29.0456 133.762 32.9844C135.812 36.9232 136.838 41.5293 136.838 46.8027V51.1973H93.7227V42.2129H130.1L123.312 50.6113V45.1426C123.312 42.0827 122.84 39.5273 121.896 37.4766C120.952 35.3932 119.634 33.8307 117.941 32.7891C116.281 31.7474 114.344 31.2266 112.131 31.2266C109.917 31.2266 107.948 31.7637 106.223 32.8379C104.53 33.9121 103.195 35.4909 102.219 37.5742C101.275 39.625 100.803 42.1478 100.803 45.1426V50.6602C100.803 53.5573 101.275 56.0312 102.219 58.082C103.195 60.1328 104.579 61.7116 106.369 62.8184C108.16 63.8926 110.292 64.4297 112.766 64.4297C114.719 64.4297 116.411 64.1204 117.844 63.502C119.276 62.8835 120.448 62.1022 121.359 61.1582C122.271 60.2142 122.889 59.2539 123.215 58.2773L123.312 57.9844H136.398L136.252 58.5215C135.861 60.4421 135.096 62.3789 133.957 64.332C132.818 66.2852 131.271 68.0755 129.318 69.7031C127.398 71.3307 125.038 72.6328 122.238 73.6094C119.471 74.5859 116.216 75.0742 112.473 75.0742Z" fill="black"/>
<path d="M185.041 75.0742C182.535 75.0742 180.24 74.6673 178.156 73.8535C176.073 73.0397 174.25 71.9004 172.688 70.4355C171.125 68.9382 169.872 67.1478 168.928 65.0645H168.635V74H154.377V3.54102H168.635V30.7383H168.928C169.904 28.6224 171.174 26.8158 172.736 25.3184C174.299 23.7884 176.122 22.6165 178.205 21.8027C180.321 20.9889 182.616 20.582 185.09 20.582C189.484 20.582 193.26 21.6725 196.418 23.8535C199.608 26.002 202.066 29.1107 203.791 33.1797C205.516 37.2161 206.379 42.0827 206.379 47.7793V47.8281C206.379 53.4922 205.516 58.3587 203.791 62.4277C202.066 66.4967 199.608 69.6217 196.418 71.8027C193.228 73.9837 189.436 75.0742 185.041 75.0742ZM180.305 63.2578C182.681 63.2578 184.732 62.6393 186.457 61.4023C188.182 60.1328 189.517 58.3424 190.461 56.0312C191.405 53.7201 191.877 50.9857 191.877 47.8281V47.7793C191.877 44.5892 191.405 41.8548 190.461 39.5762C189.517 37.265 188.166 35.4909 186.408 34.2539C184.683 33.0169 182.648 32.3984 180.305 32.3984C177.993 32.3984 175.959 33.0332 174.201 34.3027C172.476 35.5397 171.109 37.3138 170.1 39.625C169.123 41.9036 168.635 44.6217 168.635 47.7793V47.8281C168.635 50.9857 169.123 53.7201 170.1 56.0312C171.076 58.3424 172.443 60.1328 174.201 61.4023C175.959 62.6393 177.993 63.2578 180.305 63.2578Z" fill="black"/>
<path d="M226.525 75.0742C222.684 75.0742 219.413 74.293 216.711 72.7305C214.042 71.1354 211.991 68.873 210.559 65.9434C209.159 63.0137 208.459 59.5143 208.459 55.4453V21.6562H222.717V52.4668C222.717 55.8848 223.514 58.5378 225.109 60.4258C226.737 62.3138 229.146 63.2578 232.336 63.2578C233.931 63.2578 235.363 62.9811 236.633 62.4277C237.935 61.8743 239.042 61.0931 239.953 60.084C240.865 59.0423 241.564 57.8216 242.053 56.4219C242.541 54.9896 242.785 53.4271 242.785 51.7344V21.6562H257.043V74H242.785V65.3574H242.492C241.581 67.3431 240.376 69.0684 238.879 70.5332C237.414 71.998 235.64 73.1211 233.557 73.9023C231.506 74.6836 229.162 75.0742 226.525 75.0742Z" fill="black"/>
<path d="M261.613 74V21.6562H275.871V74H261.613ZM268.742 14.918C266.594 14.918 264.787 14.1855 263.322 12.7207C261.857 11.2559 261.125 9.51432 261.125 7.49609C261.125 5.44531 261.857 3.70378 263.322 2.27148C264.787 0.806641 266.594 0.0742188 268.742 0.0742188C270.891 0.0742188 272.697 0.806641 274.162 2.27148C275.627 3.70378 276.359 5.44531 276.359 7.49609C276.359 9.51432 275.627 11.2559 274.162 12.7207C272.697 14.1855 270.891 14.918 268.742 14.918Z" fill="black"/>
<path d="M280.783 74V3.54102H295.041V74H280.783Z" fill="black"/>
<path d="M319.045 75.0742C314.65 75.0742 310.858 73.9837 307.668 71.8027C304.478 69.6217 302.02 66.4967 300.295 62.4277C298.602 58.3587 297.756 53.4922 297.756 47.8281V47.7793C297.756 42.0827 298.618 37.2161 300.344 33.1797C302.069 29.1107 304.51 26.002 307.668 23.8535C310.858 21.6725 314.65 20.582 319.045 20.582C321.519 20.582 323.798 20.9889 325.881 21.8027C327.964 22.6165 329.787 23.7884 331.35 25.3184C332.945 26.8158 334.214 28.6224 335.158 30.7383H335.451V3.54102H349.709V74H335.451V65.0645H335.158C334.247 67.1478 333.01 68.9382 331.447 70.4355C329.885 71.9004 328.062 73.0397 325.979 73.8535C323.895 74.6673 321.584 75.0742 319.045 75.0742ZM323.83 63.2578C326.141 63.2578 328.176 62.6393 329.934 61.4023C331.691 60.1328 333.059 58.3424 334.035 56.0312C335.012 53.7201 335.5 50.9857 335.5 47.8281V47.7793C335.5 44.6217 334.995 41.9036 333.986 39.625C333.01 37.3138 331.643 35.5397 329.885 34.3027C328.16 33.0332 326.141 32.3984 323.83 32.3984C321.454 32.3984 319.403 33.0169 317.678 34.2539C315.952 35.4909 314.618 37.265 313.674 39.5762C312.73 41.8548 312.258 44.5892 312.258 47.7793V47.8281C312.258 50.9857 312.714 53.7201 313.625 56.0312C314.569 58.3424 315.904 60.1328 317.629 61.4023C319.387 62.6393 321.454 63.2578 323.83 63.2578Z" fill="black"/>
<path d="M369.396 74V3.54102H383.654V30.6895H383.947C385.314 27.4342 387.349 24.944 390.051 23.2188C392.785 21.4609 396.105 20.582 400.012 20.582C403.82 20.582 407.092 21.4284 409.826 23.1211C412.561 24.7812 414.66 27.1413 416.125 30.2012C417.622 33.2611 418.371 36.9069 418.371 41.1387V74H404.113V44.0684C404.113 40.4225 403.234 37.5742 401.477 35.5234C399.751 33.4401 397.261 32.3984 394.006 32.3984C391.923 32.3984 390.1 32.903 388.537 33.9121C387.007 34.8887 385.803 36.2559 384.924 38.0137C384.077 39.7389 383.654 41.7409 383.654 44.0195V74H369.396Z" fill="black"/>
<path d="M446.574 75.0742C441.268 75.0742 436.678 73.9837 432.805 71.8027C428.931 69.6217 425.936 66.4967 423.82 62.4277C421.704 58.3587 420.646 53.4922 420.646 47.8281V47.7305C420.646 42.099 421.721 37.265 423.869 33.2285C426.018 29.1595 429.029 26.0345 432.902 23.8535C436.776 21.6725 441.317 20.582 446.525 20.582C451.766 20.582 456.324 21.6725 460.197 23.8535C464.104 26.002 467.131 29.1107 469.279 33.1797C471.428 37.2161 472.502 42.0664 472.502 47.7305V47.8281C472.502 53.5247 471.428 58.4076 469.279 62.4766C467.163 66.5456 464.169 69.6706 460.295 71.8516C456.421 74 451.848 75.0742 446.574 75.0742ZM446.623 63.8926C448.934 63.8926 450.936 63.2741 452.629 62.0371C454.354 60.7676 455.673 58.9447 456.584 56.5684C457.528 54.1595 458 51.2461 458 47.8281V47.7305C458 44.3451 457.528 41.4642 456.584 39.0879C455.64 36.7116 454.305 34.9049 452.58 33.668C450.855 32.3984 448.837 31.7637 446.525 31.7637C444.247 31.7637 442.245 32.3984 440.52 33.668C438.827 34.9049 437.508 36.7116 436.564 39.0879C435.62 41.4642 435.148 44.3451 435.148 47.7305V47.8281C435.148 51.2461 435.604 54.1595 436.516 56.5684C437.46 58.9447 438.794 60.7676 440.52 62.0371C442.245 63.2741 444.279 63.8926 446.623 63.8926Z" fill="black"/>
<path d="M474.875 74V21.6562H489.133V30.4453H489.426C490.5 27.4505 492.323 25.0579 494.895 23.2676C497.499 21.4772 500.559 20.582 504.074 20.582C506.516 20.582 508.713 21.0052 510.666 21.8516C512.619 22.6979 514.263 23.9186 515.598 25.5137C516.965 27.1087 517.925 29.0618 518.479 31.373H518.771C519.553 29.1595 520.725 27.2552 522.287 25.6602C523.882 24.0326 525.754 22.7793 527.902 21.9004C530.083 21.0215 532.46 20.582 535.031 20.582C538.449 20.582 541.444 21.3145 544.016 22.7793C546.587 24.2441 548.589 26.2949 550.021 28.9316C551.454 31.5684 552.17 34.6608 552.17 38.209V74H537.912V41.7734C537.912 39.7552 537.57 38.0462 536.887 36.6465C536.236 35.2467 535.275 34.1888 534.006 33.4727C532.769 32.7565 531.223 32.3984 529.367 32.3984C527.577 32.3984 525.998 32.8053 524.631 33.6191C523.296 34.4329 522.255 35.5723 521.506 37.0371C520.757 38.502 520.383 40.2109 520.383 42.1641V74H506.662V41.334C506.662 39.446 506.32 37.8346 505.637 36.5C504.953 35.1654 503.977 34.1562 502.707 33.4727C501.47 32.7565 499.973 32.3984 498.215 32.3984C496.424 32.3984 494.846 32.8216 493.479 33.668C492.111 34.5143 491.037 35.6862 490.256 37.1836C489.507 38.681 489.133 40.4225 489.133 42.4082V74H474.875Z" fill="black"/>
<path d="M580.031 75.0742C574.693 75.0742 570.103 73.9837 566.262 71.8027C562.421 69.5892 559.458 66.4479 557.375 62.3789C555.324 58.3099 554.299 53.4922 554.299 47.9258V47.877C554.299 42.3105 555.324 37.4928 557.375 33.4238C559.458 29.3223 562.372 26.1647 566.115 23.9512C569.891 21.7051 574.335 20.582 579.445 20.582C584.556 20.582 588.967 21.6725 592.678 23.8535C596.421 26.002 599.302 29.0456 601.32 32.9844C603.371 36.9232 604.396 41.5293 604.396 46.8027V51.1973H561.281V42.2129H597.658L590.871 50.6113V45.1426C590.871 42.0827 590.399 39.5273 589.455 37.4766C588.511 35.3932 587.193 33.8307 585.5 32.7891C583.84 31.7474 581.903 31.2266 579.689 31.2266C577.476 31.2266 575.507 31.7637 573.781 32.8379C572.089 33.9121 570.754 35.4909 569.777 37.5742C568.833 39.625 568.361 42.1478 568.361 45.1426V50.6602C568.361 53.5573 568.833 56.0312 569.777 58.082C570.754 60.1328 572.137 61.7116 573.928 62.8184C575.718 63.8926 577.85 64.4297 580.324 64.4297C582.277 64.4297 583.97 64.1204 585.402 63.502C586.835 62.8835 588.007 62.1022 588.918 61.1582C589.829 60.2142 590.448 59.2539 590.773 58.2773L590.871 57.9844H603.957L603.811 58.5215C603.42 60.4421 602.655 62.3789 601.516 64.332C600.376 66.2852 598.83 68.0755 596.877 69.7031C594.956 71.3307 592.596 72.6328 589.797 73.6094C587.03 74.5859 583.775 75.0742 580.031 75.0742Z" fill="black"/>
<path d="M628.303 75.0742C623.485 75.0742 619.383 74.3743 615.998 72.9746C612.613 71.5749 609.96 69.638 608.039 67.1641C606.151 64.6576 605.012 61.7604 604.621 58.4727L604.572 58.0332H618.488L618.586 58.4727C619.042 60.5234 620.067 62.1185 621.662 63.2578C623.257 64.3971 625.471 64.9668 628.303 64.9668C630.126 64.9668 631.672 64.7552 632.941 64.332C634.211 63.8763 635.188 63.2415 635.871 62.4277C636.587 61.6139 636.945 60.6374 636.945 59.498V59.4492C636.945 58.0495 636.441 56.9264 635.432 56.0801C634.423 55.2337 632.632 54.5176 630.061 53.9316L621.174 52.0762C617.788 51.36 614.956 50.3346 612.678 49C610.432 47.6328 608.739 45.9564 607.6 43.9707C606.46 41.9525 605.891 39.6413 605.891 37.0371V36.9883C605.891 33.6354 606.786 30.7383 608.576 28.2969C610.367 25.8555 612.906 23.9674 616.193 22.6328C619.514 21.2656 623.387 20.582 627.814 20.582C632.437 20.582 636.359 21.3307 639.582 22.8281C642.837 24.293 645.327 26.2786 647.053 28.7852C648.811 31.2917 649.738 34.0749 649.836 37.1348V37.623H636.701L636.652 37.2324C636.424 35.3444 635.546 33.7819 634.016 32.5449C632.518 31.2754 630.451 30.6406 627.814 30.6406C626.187 30.6406 624.771 30.8685 623.566 31.3242C622.362 31.7799 621.434 32.431 620.783 33.2773C620.132 34.0911 619.807 35.0677 619.807 36.207V36.2559C619.807 37.1348 620.018 37.9323 620.441 38.6484C620.897 39.332 621.646 39.9342 622.688 40.4551C623.729 40.9759 625.129 41.4316 626.887 41.8223L635.773 43.7266C641.275 44.8659 645.214 46.5749 647.59 48.8535C649.999 51.1322 651.203 54.1921 651.203 58.0332V58.082C651.203 61.5 650.227 64.4785 648.273 67.0176C646.32 69.5566 643.618 71.5423 640.168 72.9746C636.75 74.3743 632.795 75.0742 628.303 75.0742Z" fill="black"/>
<path d="M660.656 74.8301C658.443 74.8301 656.571 74.0651 655.041 72.5352C653.511 71.0052 652.746 69.1335 652.746 66.9199C652.746 64.7064 653.511 62.8346 655.041 61.3047C656.571 59.7747 658.443 59.0098 660.656 59.0098C662.87 59.0098 664.742 59.7747 666.271 61.3047C667.801 62.8346 668.566 64.7064 668.566 66.9199C668.566 69.1335 667.801 71.0052 666.271 72.5352C664.742 74.0651 662.87 74.8301 660.656 74.8301Z" fill="black"/>
<path d="M96.2422 169V98.541H109.133L147.463 153.668L135.109 144.342H141.262V98.541H155.959V169H143.166L104.787 113.531L117.141 122.857H110.939V169H96.2422Z" fill="black"/>
<path d="M185.529 170.074C180.223 170.074 175.633 168.984 171.76 166.803C167.886 164.622 164.891 161.497 162.775 157.428C160.66 153.359 159.602 148.492 159.602 142.828V142.73C159.602 137.099 160.676 132.265 162.824 128.229C164.973 124.16 167.984 121.035 171.857 118.854C175.731 116.673 180.272 115.582 185.48 115.582C190.721 115.582 195.279 116.673 199.152 118.854C203.059 121.002 206.086 124.111 208.234 128.18C210.383 132.216 211.457 137.066 211.457 142.73V142.828C211.457 148.525 210.383 153.408 208.234 157.477C206.118 161.546 203.124 164.671 199.25 166.852C195.376 169 190.803 170.074 185.529 170.074ZM185.578 158.893C187.889 158.893 189.891 158.274 191.584 157.037C193.309 155.768 194.628 153.945 195.539 151.568C196.483 149.16 196.955 146.246 196.955 142.828V142.73C196.955 139.345 196.483 136.464 195.539 134.088C194.595 131.712 193.26 129.905 191.535 128.668C189.81 127.398 187.792 126.764 185.48 126.764C183.202 126.764 181.2 127.398 179.475 128.668C177.782 129.905 176.464 131.712 175.52 134.088C174.576 136.464 174.104 139.345 174.104 142.73V142.828C174.104 146.246 174.559 149.16 175.471 151.568C176.415 153.945 177.749 155.768 179.475 157.037C181.2 158.274 183.234 158.893 185.578 158.893Z" fill="black"/>
<path d="M234.631 170.074C228.837 170.074 224.54 168.854 221.74 166.412C218.941 163.971 217.541 159.951 217.541 154.352V127.398H210.266V116.656H217.541V103.863H231.945V116.656H241.516V127.398H231.945V152.789C231.945 155.23 232.482 156.939 233.557 157.916C234.663 158.86 236.291 159.332 238.439 159.332C239.09 159.332 239.66 159.316 240.148 159.283C240.637 159.218 241.092 159.153 241.516 159.088V169.537C240.734 169.667 239.758 169.781 238.586 169.879C237.447 170.009 236.128 170.074 234.631 170.074Z" fill="black"/>
<path d="M259.543 169V98.541H273.801V125.689H274.094C275.461 122.434 277.495 119.944 280.197 118.219C282.932 116.461 286.252 115.582 290.158 115.582C293.967 115.582 297.238 116.428 299.973 118.121C302.707 119.781 304.807 122.141 306.271 125.201C307.769 128.261 308.518 131.907 308.518 136.139V169H294.26V139.068C294.26 135.423 293.381 132.574 291.623 130.523C289.898 128.44 287.408 127.398 284.152 127.398C282.069 127.398 280.246 127.903 278.684 128.912C277.154 129.889 275.949 131.256 275.07 133.014C274.224 134.739 273.801 136.741 273.801 139.02V169H259.543Z" fill="black"/>
<path d="M336.721 170.074C331.415 170.074 326.825 168.984 322.951 166.803C319.077 164.622 316.083 161.497 313.967 157.428C311.851 153.359 310.793 148.492 310.793 142.828V142.73C310.793 137.099 311.867 132.265 314.016 128.229C316.164 124.16 319.175 121.035 323.049 118.854C326.923 116.673 331.464 115.582 336.672 115.582C341.913 115.582 346.47 116.673 350.344 118.854C354.25 121.002 357.277 124.111 359.426 128.18C361.574 132.216 362.648 137.066 362.648 142.73V142.828C362.648 148.525 361.574 153.408 359.426 157.477C357.31 161.546 354.315 164.671 350.441 166.852C346.568 169 341.994 170.074 336.721 170.074ZM336.77 158.893C339.081 158.893 341.083 158.274 342.775 157.037C344.501 155.768 345.819 153.945 346.73 151.568C347.674 149.16 348.146 146.246 348.146 142.828V142.73C348.146 139.345 347.674 136.464 346.73 134.088C345.786 131.712 344.452 129.905 342.727 128.668C341.001 127.398 338.983 126.764 336.672 126.764C334.393 126.764 332.391 127.398 330.666 128.668C328.973 129.905 327.655 131.712 326.711 134.088C325.767 136.464 325.295 139.345 325.295 142.73V142.828C325.295 146.246 325.751 149.16 326.662 151.568C327.606 153.945 328.941 155.768 330.666 157.037C332.391 158.274 334.426 158.893 336.77 158.893Z" fill="black"/>
<path d="M382.844 170.074C379.003 170.074 375.731 169.293 373.029 167.73C370.36 166.135 368.309 163.873 366.877 160.943C365.477 158.014 364.777 154.514 364.777 150.445V116.656H379.035V147.467C379.035 150.885 379.833 153.538 381.428 155.426C383.055 157.314 385.464 158.258 388.654 158.258C390.249 158.258 391.682 157.981 392.951 157.428C394.253 156.874 395.36 156.093 396.271 155.084C397.183 154.042 397.883 152.822 398.371 151.422C398.859 149.99 399.104 148.427 399.104 146.734V116.656H413.361V169H399.104V160.357H398.811C397.899 162.343 396.695 164.068 395.197 165.533C393.732 166.998 391.958 168.121 389.875 168.902C387.824 169.684 385.48 170.074 382.844 170.074Z" fill="black"/>
<path d="M439.172 170.074C434.354 170.074 430.253 169.374 426.867 167.975C423.482 166.575 420.829 164.638 418.908 162.164C417.02 159.658 415.881 156.76 415.49 153.473L415.441 153.033H429.357L429.455 153.473C429.911 155.523 430.936 157.118 432.531 158.258C434.126 159.397 436.34 159.967 439.172 159.967C440.995 159.967 442.541 159.755 443.811 159.332C445.08 158.876 446.057 158.242 446.74 157.428C447.456 156.614 447.814 155.637 447.814 154.498V154.449C447.814 153.049 447.31 151.926 446.301 151.08C445.292 150.234 443.501 149.518 440.93 148.932L432.043 147.076C428.658 146.36 425.826 145.335 423.547 144C421.301 142.633 419.608 140.956 418.469 138.971C417.329 136.952 416.76 134.641 416.76 132.037V131.988C416.76 128.635 417.655 125.738 419.445 123.297C421.236 120.855 423.775 118.967 427.062 117.633C430.383 116.266 434.257 115.582 438.684 115.582C443.306 115.582 447.229 116.331 450.451 117.828C453.706 119.293 456.197 121.279 457.922 123.785C459.68 126.292 460.607 129.075 460.705 132.135V132.623H447.57L447.521 132.232C447.294 130.344 446.415 128.782 444.885 127.545C443.387 126.275 441.32 125.641 438.684 125.641C437.056 125.641 435.64 125.868 434.436 126.324C433.231 126.78 432.303 127.431 431.652 128.277C431.001 129.091 430.676 130.068 430.676 131.207V131.256C430.676 132.135 430.887 132.932 431.311 133.648C431.766 134.332 432.515 134.934 433.557 135.455C434.598 135.976 435.998 136.432 437.756 136.822L446.643 138.727C452.144 139.866 456.083 141.575 458.459 143.854C460.868 146.132 462.072 149.192 462.072 153.033V153.082C462.072 156.5 461.096 159.479 459.143 162.018C457.189 164.557 454.488 166.542 451.037 167.975C447.619 169.374 443.664 170.074 439.172 170.074Z" fill="black"/>
<path d="M487.932 170.074C482.593 170.074 478.003 168.984 474.162 166.803C470.321 164.589 467.359 161.448 465.275 157.379C463.225 153.31 462.199 148.492 462.199 142.926V142.877C462.199 137.311 463.225 132.493 465.275 128.424C467.359 124.322 470.272 121.165 474.016 118.951C477.792 116.705 482.235 115.582 487.346 115.582C492.456 115.582 496.867 116.673 500.578 118.854C504.322 121.002 507.202 124.046 509.221 127.984C511.271 131.923 512.297 136.529 512.297 141.803V146.197H469.182V137.213H505.559L498.771 145.611V140.143C498.771 137.083 498.299 134.527 497.355 132.477C496.411 130.393 495.093 128.831 493.4 127.789C491.74 126.747 489.803 126.227 487.59 126.227C485.376 126.227 483.407 126.764 481.682 127.838C479.989 128.912 478.654 130.491 477.678 132.574C476.734 134.625 476.262 137.148 476.262 140.143V145.66C476.262 148.557 476.734 151.031 477.678 153.082C478.654 155.133 480.038 156.712 481.828 157.818C483.618 158.893 485.751 159.43 488.225 159.43C490.178 159.43 491.87 159.12 493.303 158.502C494.735 157.883 495.907 157.102 496.818 156.158C497.73 155.214 498.348 154.254 498.674 153.277L498.771 152.984H511.857L511.711 153.521C511.32 155.442 510.555 157.379 509.416 159.332C508.277 161.285 506.73 163.076 504.777 164.703C502.857 166.331 500.497 167.633 497.697 168.609C494.93 169.586 491.675 170.074 487.932 170.074Z" fill="black"/>
<path d="M536.203 170.074C531.385 170.074 527.284 169.374 523.898 167.975C520.513 166.575 517.86 164.638 515.939 162.164C514.051 159.658 512.912 156.76 512.521 153.473L512.473 153.033H526.389L526.486 153.473C526.942 155.523 527.967 157.118 529.562 158.258C531.158 159.397 533.371 159.967 536.203 159.967C538.026 159.967 539.572 159.755 540.842 159.332C542.111 158.876 543.088 158.242 543.771 157.428C544.488 156.614 544.846 155.637 544.846 154.498V154.449C544.846 153.049 544.341 151.926 543.332 151.08C542.323 150.234 540.533 149.518 537.961 148.932L529.074 147.076C525.689 146.36 522.857 145.335 520.578 144C518.332 142.633 516.639 140.956 515.5 138.971C514.361 136.952 513.791 134.641 513.791 132.037V131.988C513.791 128.635 514.686 125.738 516.477 123.297C518.267 120.855 520.806 118.967 524.094 117.633C527.414 116.266 531.288 115.582 535.715 115.582C540.337 115.582 544.26 116.331 547.482 117.828C550.738 119.293 553.228 121.279 554.953 123.785C556.711 126.292 557.639 129.075 557.736 132.135V132.623H544.602L544.553 132.232C544.325 130.344 543.446 128.782 541.916 127.545C540.419 126.275 538.352 125.641 535.715 125.641C534.087 125.641 532.671 125.868 531.467 126.324C530.262 126.78 529.335 127.431 528.684 128.277C528.033 129.091 527.707 130.068 527.707 131.207V131.256C527.707 132.135 527.919 132.932 528.342 133.648C528.798 134.332 529.546 134.934 530.588 135.455C531.63 135.976 533.029 136.432 534.787 136.822L543.674 138.727C549.175 139.866 553.114 141.575 555.49 143.854C557.899 146.132 559.104 149.192 559.104 153.033V153.082C559.104 156.5 558.127 159.479 556.174 162.018C554.221 164.557 551.519 166.542 548.068 167.975C544.65 169.374 540.695 170.074 536.203 170.074Z" fill="black"/>
<path d="M568.557 169.83C566.343 169.83 564.471 169.065 562.941 167.535C561.411 166.005 560.646 164.133 560.646 161.92C560.646 159.706 561.411 157.835 562.941 156.305C564.471 154.775 566.343 154.01 568.557 154.01C570.77 154.01 572.642 154.775 574.172 156.305C575.702 157.835 576.467 159.706 576.467 161.92C576.467 164.133 575.702 166.005 574.172 167.535C572.642 169.065 570.77 169.83 568.557 169.83Z" fill="black"/>
</svg>
