<svg fill="none" height="17" viewBox="0 0 18 17" width="18" xmlns="http://www.w3.org/2000/svg"><path d="m1.03125 9.1882 2.35107 2.0728c.14649.1318.29542.1928.44678.1831.15625-.0098.28809-.0708.39551-.1831.10742-.1172.16113-.2662.16113-.4468v-1.61135h4.12354v4.15285h-1.62598c-.18066 0-.32715.0537-.43945.1611-.11231.1074-.17334.2393-.18311.3955-.00976.1563.04883.3052.17578.4468l2.07276 2.3511c.1416.1562.30517.2319.49072.227.19043 0 .354-.0781.49072-.2343l2.06548-2.3438c.1318-.1416.1928-.2905.1831-.4468-.0098-.1562-.0733-.2881-.1905-.3955-.1123-.1074-.2588-.1611-.4394-.1611h-1.61135v-4.15285h4.10885v1.61135c0 .1806.0537.3296.1612.4468.1074.1123.2368.1733.3882.1831.1562.0097.3076-.0513.4541-.1831l2.3437-2.06547c.1563-.13672.2344-.29785.2344-.4834 0-.19043-.0757-.35645-.2271-.49805l-2.351-2.07275c-.1465-.12695-.2979-.18555-.4541-.17578-.1514.00976-.2808.07324-.3882.19043-.1075.1123-.1612.25879-.1612.43945v1.61865h-4.10885v-4.16748h1.61135c.1806 0 .3271-.05371.4394-.16113.1172-.10742.1807-.23682.1905-.38818.0097-.15625-.0513-.30518-.1831-.44678l-2.0728-2.351076c-.13672-.161133-.30029-.239258-.49072-.234375-.18555 0-.34668.078125-.4834.234375l-2.07276 2.351076c-.12695.1416-.18554.29053-.17578.44678.00977.15136.0708.28076.18311.38818.1123.10742.25879.16113.43945.16113h1.62598v4.16748h-4.12354v-1.61865c0-.18066-.05371-.32715-.16113-.43945-.10742-.11719-.23926-.18067-.39551-.19043-.15136-.00977-.30029.04883-.44678.17578l-2.34375 2.07275c-.151362.13184-.229487.29297-.23437.4834-.004883.18555.070801.34912.22705.49072z" fill="#000" fill-opacity=".6"/></svg>