<svg width="79" height="25" viewBox="0 0 79 25" 
xmlns="http://www.w3.org/2000/svg">
<g fill="#000">
<path d="M0.5 19.6412V1.2785H4.29446V16.4726H12.2226V19.6412H0.5Z"/>
<path d="M18.8767 19.9211C17.5114 19.9211 16.3303 19.6369 15.3336 19.0685C14.3368 18.5001 13.5662 17.6857 13.0217 16.6253C12.4773 15.5648 12.205 14.2965 12.205 12.8204V12.7949C12.205 11.3273 12.4814 10.0675 13.0343 9.01551C13.5871 7.95506 14.3619 7.14064 15.3587 6.57224C16.3555 6.00384 17.524 5.71964 18.8642 5.71964C20.2128 5.71964 21.3854 6.00384 22.3822 6.57224C23.3874 7.13216 24.1664 7.94234 24.7192 9.00278C25.272 10.0547 25.5485 11.3188 25.5485 12.7949V12.8204C25.5485 14.305 25.272 15.5775 24.7192 16.638C24.1747 17.6984 23.4041 18.5129 22.4073 19.0813C21.4106 19.6412 20.2337 19.9211 18.8767 19.9211ZM18.8893 17.007C19.484 17.007 19.9992 16.8458 20.4347 16.5235C20.8787 16.1926 21.2179 15.7175 21.4524 15.0982C21.6954 14.4704 21.8168 13.7112 21.8168 12.8204V12.7949C21.8168 11.9126 21.6954 11.1619 21.4524 10.5426C21.2095 9.92325 20.8661 9.45241 20.4222 9.13004C19.9782 8.79918 19.4589 8.63375 18.8642 8.63375C18.2778 8.63375 17.7627 8.79918 17.3187 9.13004C16.8832 9.45241 16.5439 9.92325 16.301 10.5426C16.0581 11.1619 15.9367 11.9126 15.9367 12.7949V12.8204C15.9367 13.7112 16.0539 14.4704 16.2885 15.0982C16.5314 15.7175 16.8748 16.1926 17.3187 16.5235C17.7627 16.8458 18.2862 17.007 18.8893 17.007Z"/>
<path d="M32.4539 24.375C31.2226 24.375 30.1462 24.2011 29.2248 23.8533C28.3118 23.5139 27.5831 23.0516 27.0386 22.4662C26.5025 21.8808 26.1758 21.2234 26.0586 20.4938L26.046 20.3792H29.6143L29.652 20.4683C29.8028 20.7992 30.1169 21.0919 30.5943 21.3464C31.0718 21.6009 31.6916 21.7281 32.4539 21.7281C33.4004 21.7281 34.1207 21.4991 34.6149 21.041C35.1091 20.5828 35.3562 19.972 35.3562 19.2085V17.1216H35.2809C35.0463 17.5966 34.728 18.0081 34.326 18.3559C33.9239 18.7037 33.4506 18.9752 32.9062 19.1703C32.3701 19.357 31.7754 19.4503 31.122 19.4503C29.9996 19.4503 29.028 19.1788 28.2071 18.6359C27.3946 18.0929 26.7664 17.3167 26.3224 16.3071C25.8869 15.2891 25.6691 14.076 25.6691 12.6677V12.655C25.6691 11.2043 25.891 9.96143 26.335 8.92643C26.7873 7.89144 27.4239 7.09822 28.2448 6.54679C29.0657 5.99536 30.0457 5.71964 31.1849 5.71964C31.8215 5.71964 32.4036 5.82569 32.9313 6.03778C33.459 6.24987 33.9197 6.55103 34.3134 6.94128C34.7155 7.33152 35.0379 7.79388 35.2809 8.32834H35.3562V5.9996H39.0251V19.2594C39.0251 20.269 38.757 21.1555 38.2209 21.919C37.6932 22.691 36.9352 23.2933 35.9468 23.726C34.9668 24.1587 33.8024 24.375 32.4539 24.375ZM32.391 16.7271C32.9941 16.7271 33.5177 16.5659 33.9616 16.2435C34.4055 15.9211 34.749 15.463 34.9919 14.8692C35.2432 14.2753 35.3688 13.5712 35.3688 12.7568V12.744C35.3688 11.9296 35.2432 11.2297 34.9919 10.6444C34.749 10.0505 34.4014 9.59663 33.949 9.28274C33.5051 8.96037 32.9858 8.79918 32.391 8.79918C31.7879 8.79918 31.2602 8.96037 30.8079 9.28274C30.3556 9.59663 30.008 10.0463 29.7651 10.6316C29.5222 11.217 29.4007 11.9211 29.4007 12.744V12.7568C29.4007 13.5712 29.5222 14.2753 29.7651 14.8692C30.008 15.463 30.3556 15.9211 30.8079 16.2435C31.2602 16.5659 31.7879 16.7271 32.391 16.7271Z"/>
<path d="M40.1508 19.6412V5.9996H43.8197V8.29016H43.895C44.1715 7.50968 44.6405 6.88613 45.3023 6.41954C45.9724 5.95294 46.7597 5.71964 47.6644 5.71964C48.2926 5.71964 48.858 5.82993 49.3606 6.0505C49.8631 6.27108 50.2861 6.58921 50.6296 7.0049C50.9814 7.4206 51.2285 7.92961 51.3709 8.53195H51.4463C51.6473 7.95506 51.9488 7.45878 52.3509 7.04308C52.7613 6.6189 53.243 6.29229 53.7958 6.06323C54.357 5.83417 54.9685 5.71964 55.6302 5.71964C56.5097 5.71964 57.2803 5.91053 57.9421 6.29229C58.6038 6.67405 59.1189 7.20851 59.4875 7.89568C59.8561 8.58285 60.0403 9.38879 60.0403 10.3135V19.6412H56.3715V11.2424C56.3715 10.7165 56.2836 10.2711 56.1077 9.90628C55.9401 9.54149 55.693 9.26577 55.3664 9.07914C55.0481 8.8925 54.6502 8.79918 54.1727 8.79918C53.712 8.79918 53.3058 8.90522 52.954 9.11731C52.6106 9.3294 52.3425 9.62633 52.1499 10.0081C51.9572 10.3898 51.8609 10.8352 51.8609 11.3442V19.6412H48.3303V11.1279C48.3303 10.6359 48.2423 10.2159 48.0664 9.86811C47.8905 9.52028 47.6392 9.25729 47.3126 9.07914C46.9943 8.8925 46.609 8.79918 46.1566 8.79918C45.6959 8.79918 45.2897 8.90946 44.9379 9.13004C44.5861 9.35061 44.3097 9.65602 44.1086 10.0463C43.916 10.4365 43.8197 10.8904 43.8197 11.4079V19.6412H40.1508Z"/>
<path d="M61.1535 19.6412V5.9996H64.8224V19.6412H61.1535ZM62.9879 4.2435C62.4351 4.2435 61.9702 4.05262 61.5933 3.67086C61.2164 3.2891 61.0279 2.83523 61.0279 2.30925C61.0279 1.77479 61.2164 1.32092 61.5933 0.947641C61.9702 0.56588 62.4351 0.375 62.9879 0.375C63.5408 0.375 64.0057 0.56588 64.3826 0.947641C64.7595 1.32092 64.948 1.77479 64.948 2.30925C64.948 2.83523 64.7595 3.2891 64.3826 3.67086C64.0057 4.05262 63.5408 4.2435 62.9879 4.2435Z"/>
<path d="M65.9984 19.6412V5.9996H69.6672V8.23926H69.7426C70.0944 7.45878 70.6137 6.84372 71.3006 6.39409C71.9874 5.94446 72.8376 5.71964 73.8512 5.71964C75.3338 5.71964 76.4771 6.17352 77.2812 7.08126C78.0937 7.98051 78.5 9.23184 78.5 10.8352V19.6412H74.8312V11.5988C74.8312 10.708 74.6218 10.0208 74.203 9.53725C73.7925 9.0452 73.1769 8.79918 72.356 8.79918C71.8115 8.79918 71.3383 8.92643 70.9362 9.18094C70.5341 9.42696 70.22 9.77479 69.9939 10.2244C69.7761 10.674 69.6672 11.2 69.6672 11.8024V19.6412H65.9984Z"/>
</g>
</svg>
