<svg fill="none" height="19" viewBox="0 0 15 19" width="15" xmlns="http://www.w3.org/2000/svg"><path d="m4.05859 4.74512v-1.64063c0-.71094.17546-1.24642.52637-1.60644.35547-.36003.88639-.540042 1.59277-.540042h2.61817c.36914 0 .69954.052412.99121.157222.29169.10026.55829.27572.79979.52637l3.4522 3.50684c.2552.26432.4329.54232.5332.83398.1002.29167.1504.64714.1504 1.06641v5.55077c0 .7109-.1778 1.2464-.5332 1.6065-.351.36-.8796.54-1.586.54h-1.4082v-1.1006h1.3467c.3555 0 .6243-.0911.8066-.2734.1823-.1869.2735-.4512.2735-.793v-5.84472h-3.1992c-.392 0-.68592-.09571-.88188-.28711-.19141-.19141-.28711-.48536-.28711-.88184v-3.50684h-3.02149c-.35547 0-.62435.09343-.80664.28028-.17773.18229-.2666.44433-.2666.78613v1.62012zm6.18651.65625c0 .12304.0251.21191.0752.2666.0547.05013.1413.07519.2598.07519h2.7549l-3.0899-3.14453zm-9.501936 10.60933v-9.49508c0-.71093.175456-1.24641.526366-1.60644.35547-.36003.88639-.54004 1.59277-.54004h2.41309c.38281 0 .69954.04102.9502.12305.25065.08203.50586.25748.76562.52636l3.76659 3.83497c.1823.18684.319.36458.4102.5332.0957.16406.1595.34635.1914.54687.0319.20051.0478.44661.0478.73831v5.3388c0 .711-.1777 1.2465-.5332 1.6065-.3509.36-.87953.54-1.58591.54h-6.42579c-.70638 0-1.2373-.18-1.59277-.54-.35091-.3555-.526366-.891-.526366-1.6065zm1.100586-.0205c0 .3418.08887.6039.2666.7862.18229.1868.44889.2802.79981.2802h6.32324c.35091 0 .61751-.0934.7998-.2802.1823-.1823.2734-.4444.2734-.7862v-5.2636h-3.86226c-.42383 0-.74512-.1071-.96387-.3213-.21419-.2142-.32129-.53779-.32129-.97073v-3.96484h-2.24219c-.35547 0-.62435.09342-.80664.28027-.17773.18229-.2666.44206-.2666.7793zm4.73047-6.29586h3.52048l-3.90329-3.97168v3.58886c0 .13672.02962.2347.08886.29395.05925.05924.15723.08887.29395.08887z" fill="#0096f7"/></svg>