<svg width="12" height="14" viewBox="0 0 12 14" fill="none" xmlns="http://www.w3.org/2000/svg">
<path d="M5.9248 0.111328C6.10254 0.111328 6.24837 0.168294 6.3623 0.282227C6.47624 0.391602 6.5332 0.535156 6.5332 0.712891V9.71582L6.46484 11.7529L6.0752 11.6162L8.5293 8.92969L10.0879 7.39844C10.1426 7.34375 10.2064 7.30273 10.2793 7.27539C10.3568 7.24805 10.4365 7.23438 10.5186 7.23438C10.6872 7.23438 10.8262 7.29134 10.9355 7.40527C11.0495 7.51921 11.1064 7.66048 11.1064 7.8291C11.1064 7.99316 11.0449 8.14128 10.9219 8.27344L6.38281 12.8193C6.31901 12.8877 6.24837 12.9378 6.1709 12.9697C6.09342 13.0062 6.01139 13.0244 5.9248 13.0244C5.84277 13.0244 5.76302 13.0062 5.68555 12.9697C5.60807 12.9378 5.53516 12.8877 5.4668 12.8193L0.93457 8.27344C0.806966 8.14128 0.743164 7.99316 0.743164 7.8291C0.743164 7.66048 0.797852 7.51921 0.907227 7.40527C1.02116 7.29134 1.16243 7.23438 1.33105 7.23438C1.41309 7.23438 1.49056 7.24805 1.56348 7.27539C1.64095 7.30273 1.70703 7.34375 1.76172 7.39844L3.32031 8.92969L5.76758 11.6162L5.38477 11.7529L5.31641 9.71582V0.712891C5.31641 0.535156 5.37337 0.391602 5.4873 0.282227C5.60124 0.168294 5.74707 0.111328 5.9248 0.111328Z" fill="#0096F7" style="fill:#0096F7;fill:color(display-p3 0.0000 0.5882 0.9686);fill-opacity:1;"/>
</svg>
