<svg width="21" height="22" viewBox="0 0 21 22" fill="none" xmlns="http://www.w3.org/2000/svg">
<path d="M7.0957 11.0972C7.0957 9.59326 7.18115 8.21582 7.35205 6.96484C7.52295 5.70703 7.76562 4.62012 8.08008 3.7041C8.40137 2.78125 8.77393 2.06689 9.19775 1.56104C9.62842 1.05518 10.1001 0.802246 10.6128 0.802246V2.26855C10.3667 2.26855 10.1206 2.45996 9.87451 2.84277C9.63525 3.21875 9.41309 3.7793 9.20801 4.52441C9.00977 5.2627 8.85254 6.18213 8.73633 7.28271C8.62012 8.3833 8.56201 9.65479 8.56201 11.0972C8.56201 12.5396 8.62012 13.811 8.73633 14.9116C8.85254 16.0122 9.00977 16.9351 9.20801 17.6802C9.41309 18.4185 9.63525 18.9756 9.87451 19.3516C10.1206 19.7344 10.3667 19.9258 10.6128 19.9258V21.3921C10.1001 21.3921 9.62842 21.1392 9.19775 20.6333C8.77393 20.1274 8.40137 19.4165 8.08008 18.5005C7.76562 17.5776 7.52295 16.4907 7.35205 15.2397C7.18115 13.9819 7.0957 12.6011 7.0957 11.0972ZM10.6333 14.604C9.12939 14.604 7.74854 14.5186 6.49072 14.3477C5.23975 14.1699 4.15283 13.9238 3.22998 13.6094C2.30713 13.2949 1.59277 12.9258 1.08691 12.502C0.581055 12.0713 0.328125 11.603 0.328125 11.0972H1.79443C1.79443 11.3433 1.98242 11.5859 2.3584 11.8252C2.74121 12.0645 3.30518 12.2832 4.05029 12.4814C4.79541 12.6797 5.71826 12.8403 6.81885 12.9634C7.91943 13.0796 9.19092 13.1377 10.6333 13.1377C12.0757 13.1377 13.3438 13.0796 14.4375 12.9634C15.5381 12.8403 16.4609 12.6797 17.2061 12.4814C17.9512 12.2832 18.5117 12.0645 18.8877 11.8252C19.2705 11.5859 19.4619 11.3433 19.4619 11.0972H20.9282C20.9282 11.603 20.6753 12.0713 20.1694 12.502C19.6636 12.9258 18.9492 13.2949 18.0264 13.6094C17.1104 13.9238 16.0234 14.1699 14.7656 14.3477C13.5078 14.5186 12.1304 14.604 10.6333 14.604ZM10.623 21.4741C9.1875 21.4741 7.84082 21.2041 6.58301 20.6641C5.33203 20.124 4.23145 19.3789 3.28125 18.4287C2.33789 17.4785 1.59619 16.3779 1.05615 15.127C0.516113 13.8691 0.246094 12.5259 0.246094 11.0972C0.246094 9.66846 0.516113 8.32861 1.05615 7.07764C1.59619 5.81982 2.33789 4.71582 3.28125 3.76562C4.23145 2.80859 5.33203 2.06348 6.58301 1.53027C7.84082 0.990234 9.1875 0.720215 10.623 0.720215C12.0518 0.720215 13.3916 0.990234 14.6426 1.53027C15.9004 2.06348 17.0044 2.80859 17.9546 3.76562C18.9048 4.71582 19.6499 5.81982 20.1899 7.07764C20.73 8.32861 21 9.66846 21 11.0972C21 12.5259 20.73 13.8691 20.1899 15.127C19.6499 16.3779 18.9048 17.4785 17.9546 18.4287C17.0044 19.3789 15.9004 20.124 14.6426 20.6641C13.3916 21.2041 12.0518 21.4741 10.623 21.4741ZM10.623 19.9258C11.8398 19.9258 12.9814 19.6968 14.0479 19.2388C15.1143 18.7876 16.0508 18.1553 16.8574 17.3418C17.6709 16.5283 18.3066 15.5884 18.7646 14.522C19.2227 13.4556 19.4517 12.314 19.4517 11.0972C19.4517 9.88037 19.2227 8.73877 18.7646 7.67236C18.3066 6.59912 17.6709 5.65918 16.8574 4.85254C16.0508 4.03906 15.1143 3.40674 14.0479 2.95557C12.9814 2.49756 11.8398 2.26855 10.623 2.26855C9.39941 2.26855 8.25439 2.49756 7.18799 2.95557C6.12158 3.40674 5.18164 4.03906 4.36816 4.85254C3.56152 5.65918 2.9292 6.59912 2.47119 7.67236C2.01318 8.73877 1.78418 9.88037 1.78418 11.0972C1.78418 12.314 2.01318 13.4556 2.47119 14.522C2.9292 15.5884 3.56152 16.5283 4.36816 17.3418C5.18164 18.1553 6.12158 18.7876 7.18799 19.2388C8.25439 19.6968 9.39941 19.9258 10.623 19.9258Z" fill="#0096F7" style="fill:#0096F7;fill:color(display-p3 0.0000 0.5882 0.9686);fill-opacity:1;"/>
</svg>
