<svg width="18" height="18" viewBox="0 0 18 18" fill="none" xmlns="http://www.w3.org/2000/svg">
<path d="M5.76562 9C5.76562 7.74023 5.83887 6.58008 5.98535 5.51953C6.1377 4.45312 6.34863 3.52734 6.61816 2.74219C6.89355 1.95703 7.21289 1.34766 7.57617 0.914062C7.94531 0.480469 8.34668 0.263672 8.78027 0.263672V1.27441C8.52832 1.27441 8.28223 1.4502 8.04199 1.80176C7.80762 2.14746 7.59375 2.65137 7.40039 3.31348C7.20703 3.97559 7.05469 4.78418 6.94336 5.73926C6.83789 6.69434 6.78516 7.78125 6.78516 9C6.78516 10.2188 6.83789 11.3057 6.94336 12.2607C7.05469 13.2158 7.20703 14.0244 7.40039 14.6865C7.59375 15.3486 7.80762 15.8525 8.04199 16.1982C8.28223 16.5439 8.52832 16.7168 8.78027 16.7168V17.7363C8.34668 17.7363 7.94531 17.5195 7.57617 17.0859C7.21289 16.6523 6.89355 16.043 6.61816 15.2578C6.34863 14.4727 6.1377 13.5498 5.98535 12.4893C5.83887 11.4229 5.76562 10.2598 5.76562 9ZM8.78906 12.0059C7.5293 12.0059 6.36621 11.9297 5.2998 11.7773C4.23926 11.625 3.31641 11.4141 2.53125 11.1445C1.74609 10.875 1.13672 10.5586 0.703125 10.1953C0.269531 9.82617 0.0527344 9.42773 0.0527344 9H1.07227C1.07227 9.24609 1.24512 9.48926 1.59082 9.72949C1.93652 9.96387 2.44043 10.1748 3.10254 10.3623C3.76465 10.5498 4.57324 10.7021 5.52832 10.8193C6.4834 10.9307 7.57031 10.9863 8.78906 10.9863C10.0078 10.9863 11.0947 10.9307 12.0498 10.8193C13.0049 10.7021 13.8135 10.5498 14.4756 10.3623C15.1377 10.1748 15.6416 9.96387 15.9873 9.72949C16.3389 9.48926 16.5146 9.24609 16.5146 9H17.5254C17.5254 9.42773 17.3086 9.82617 16.875 10.1953C16.4414 10.5586 15.832 10.875 15.0469 11.1445C14.2617 11.4141 13.3359 11.625 12.2695 11.7773C11.209 11.9297 10.0488 12.0059 8.78906 12.0059ZM8.78027 17.7803C7.56738 17.7803 6.43066 17.5518 5.37012 17.0947C4.30957 16.6436 3.37793 16.0166 2.5752 15.2139C1.77246 14.4053 1.14258 13.4707 0.685547 12.4102C0.228516 11.3496 0 10.2129 0 9C0 7.78711 0.228516 6.65039 0.685547 5.58984C1.14258 4.5293 1.77246 3.59473 2.5752 2.78613C3.37793 1.97754 4.30957 1.34766 5.37012 0.896484C6.43066 0.445312 7.56738 0.219727 8.78027 0.219727C9.99316 0.219727 11.1299 0.445312 12.1904 0.896484C13.2568 1.34766 14.1914 1.97754 14.9941 2.78613C15.7969 3.59473 16.4268 4.5293 16.8838 5.58984C17.3408 6.65039 17.5693 7.78711 17.5693 9C17.5693 10.2129 17.3408 11.3496 16.8838 12.4102C16.4268 13.4707 15.7969 14.4053 14.9941 15.2139C14.1914 16.0166 13.2568 16.6436 12.1904 17.0947C11.1299 17.5518 9.99316 17.7803 8.78027 17.7803ZM8.78027 16.7168C9.84668 16.7168 10.8457 16.5176 11.7773 16.1191C12.7148 15.7207 13.5352 15.167 14.2383 14.458C14.9473 13.749 15.501 12.9287 15.8994 11.9971C16.3037 11.0654 16.5059 10.0664 16.5059 9C16.5059 7.93359 16.3037 6.93457 15.8994 6.00293C15.501 5.06543 14.9473 4.24512 14.2383 3.54199C13.5352 2.83301 12.7148 2.2793 11.7773 1.88086C10.8457 1.47656 9.84668 1.27441 8.78027 1.27441C7.71387 1.27441 6.71484 1.47656 5.7832 1.88086C4.85156 2.2793 4.03125 2.83301 3.32227 3.54199C2.61328 4.24512 2.05957 5.06543 1.66113 6.00293C1.2627 6.93457 1.06348 7.93359 1.06348 9C1.06348 10.0664 1.2627 11.0654 1.66113 11.9971C2.05957 12.9287 2.61328 13.749 3.32227 14.458C4.03125 15.167 4.85156 15.7207 5.7832 16.1191C6.71484 16.5176 7.71387 16.7168 8.78027 16.7168Z" fill="black" fill-opacity="0.6" style="fill:black;fill-opacity:0.6;"/>
</svg>
