<svg fill="none" height="13" viewBox="0 0 14 13" width="14" xmlns="http://www.w3.org/2000/svg"><path d="m4.13574 9.34717c-.65625-.65625-1.24642-1.34668-1.77051-2.07129-.52408-.72461-.9388-1.44694-1.24414-2.16699-.305335-.72461-.458004-1.41504-.458004-2.07129 0-.4375.075195-.84766.225586-1.23047.154948-.38737.398758-.74056.731448-1.059571.41015-.396485.84993-.594727 1.31933-.594727.18229 0 .35547.038737.51953.116211.16407.072917.30534.191406.42383.355469l1.46973 2.071288c.11393.15951.19824.30762.25293.44434.05924.13672.08887.2666.08887.38965 0 .15494-.0433.30533-.12989.45117-.08659.14583-.20507.29622-.35547.45117l-.48535.49902c-.06836.06836-.10254.15267-.10254.25293 0 .05013.00684.10026.02051.15039.01823.04558.03646.08659.05469.12305.10937.20963.30534.48079.58789.81348.28255.33268.59017.66764.92285 1.00488.33724.33724.6722.64713 1.00488.92969.33269.27799.60612.47395.82032.58789.0319.01367.07063.02962.11621.04785.05013.01823.10254.02734.15722.02734.10482 0 .19141-.03646.25977-.10937l.48535-.47852c.15495-.15495.30534-.27344.45117-.35547.14584-.08659.29623-.12988.45117-.12988.12308 0 .25298.02734.38968.08203s.2848.13672.4443.2461l2.0986 1.49023c.1641.11393.2803.25065.3487.41013.0683.155.1025.319.1025.4922 0 .2324-.0524.4626-.1572.6904-.1048.2325-.2484.4489-.4307.6495-.3099.3418-.6562.5924-1.039.7519-.3829.1595-.7953.2393-1.2373.2393-.65174 0-1.34217-.155-2.07133-.4649-.72917-.3099-1.45834-.7291-2.1875-1.2578-.72917-.5286-1.42188-1.1211-2.07813-1.77733z" fill="#fff"/></svg>