<svg fill="none" height="16" viewBox="0 0 18 16" width="18" xmlns="http://www.w3.org/2000/svg"><path d="m8.78125.298828c.3125 0 .60547.117188.87891.351563l3.88964 3.265629v-1.43457c0-.16114.0488-.28809.1465-.38086.0976-.0975.2247-.14649.3808-.14649h.7833c.1611 0 .288.04883.3808.14649.0977.09277.1465.21972.1465.38086v2.97851l1.9043 1.59961c.1561.12692.2344.28525.2344.47559 0 .15126-.0558.28814-.168.41015-.1074.11719-.2617.17578-.4619.17578-.1024 0-.1974-.02455-.2852-.07324-.0829-.04876-.1612-.10263-.2343-.16113l-.9893-.83106v7.02734c0 .5127-.1436.9111-.4316 1.1943s-.6936.4248-1.2159.4248h-9.91012c-.52217 0-.92973-.1419-1.22266-.4248-.28808-.2783-.43262-.6767-.43262-1.1943v-7.02148l-.98144.8252c-.07813.05859-.16113.1123-.249024.16113-.083008.04883-.175781.07324-.27832.07324-.195177 0-.348654-.05875-.460938-.17578-.1123046-.12207-.1689452-.25879-.1689452-.41015 0-.19034.0782842-.34867.2343752-.47559l7.631832-6.409179c.27344-.234375.56641-.351563.87891-.351563zm0 1.326172c-.09276 0-.17774.0342-.25586.10254l-5.1709 4.34277v7.71969c0 .2393.06055.42.18262.542.12695.127.30762.1905.54199.1905h2.57813v-4.3067c0-.166.05175-.29978.15429-.40232s.23926-.1543.41016-.1543h3.12692c.1709 0 .3057.05176.4034.1543.1022.10247.1533.23662.1533.40232v4.3067h2.5859c.2341-.0001.4122-.0636.5342-.1905.1221-.122.1836-.3027.1836-.542v-7.72359l-5.17091-4.33887c-.07813-.06836-.16407-.10254-.25684-.10254z" fill="#000"/></svg>