<svg fill="none" height="18" viewBox="0 0 8 18" width="8" xmlns="http://www.w3.org/2000/svg"><path d="m.0372596 1.55989c-.0097656-.18066.0439453-.33691.1611324-.46875.122071-.131836.273438-.205078.454102-.219726.180664-.014649.336914.041504.468746.168456.13184.12207.20264.27344.21241.4541l.13916 2.53418.76172.54199c.17578.12696.34179.21485.49804.26368.15625.04882.34424.07324.56397.07324h1.52343c.57618 0 1.08155.1123 1.51612.33691.43945.22461.78125.53955 1.02539.94483.24902.40039.37353.87158.37353 1.41357v3.14943c0 .1806-.06347.3345-.19043.4614-.12695.127-.28076.1904-.46142.1904-.18067 0-.33447-.0634-.46143-.1904-.12695-.1269-.19043-.2808-.19043-.4614v-2.81984c0-.15625-.07812-.23437-.23437-.23437-.16114 0-.2417.07812-.2417.23437v8.48874c0 .2002-.06836.3687-.20508.5054s-.30518.2051-.50537.2051c-.2002 0-.37109-.0684-.5127-.2051-.13671-.1367-.20507-.3052-.20507-.5054v-5.1416c0-.0683-.02442-.1269-.07325-.1758-.04882-.0488-.10498-.0732-.16845-.0732-.06836 0-.12696.0244-.17578.0732-.04883.0489-.07325.1075-.07325.1758v5.1416c0 .2002-.0708.3687-.2124.5054-.13672.1367-.30273.2051-.49805.2051-.20019 0-.37109-.0684-.51269-.2051-.13672-.1367-.20508-.3052-.20508-.5054v-9.55808c0-.17089-.02686-.29296-.08057-.36621-.05371-.07812-.12939-.15136-.22705-.21972l-1.589352-1.16455c-.166016-.12207-.29541-.25635-.388184-.40284-.08789-.15136-.136719-.34423-.146484-.57861zm4.2480504 2.52686c-.29786 0-.56641-.07081-.80567-.21241-.23926-.14648-.43213-.33935-.57861-.57861-.1416-.24414-.2124-.5127-.2124-.80566 0-.29786.0708-.56641.2124-.80567.14648-.23926.33935-.42969.57861-.57129.23926-.146481.50781-.219724.80567-.219724.29297 0 .55908.073243.79834.219724.24414.1416.43701.33203.57861.57129.14648.23926.21973.50781.21973.80567 0 .29296-.07325.56152-.21973.80566-.1416.23926-.33447.43213-.57861.57861-.23926.1416-.50537.21241-.79834.21241z" fill="#000"/></svg>