<svg fill="none" height="14" viewBox="0 0 10 14" width="10" xmlns="http://www.w3.org/2000/svg"><path d="m4.66406.0820312c.30753.00006.5176.1611928.62989.4833988l1.62402 4.84863h.03808c.21973 0 .41797.07617.59375.22754.17559.15132.28519.34195.32911.57129l1.37011 6.97261c.03892.1952.01164.3664-.08105.5127-.08797.1462-.25418.2198-.49805.2198-.1707-.0001-.30279-.0441-.39551-.1319-.08781-.0829-.14645-.2004-.17578-.3515l-1.33398-6.79007h-4.23145l-1.33398 6.79007c-.02934.1511-.08995.2686-.18262.3515-.087886.0878-.217874.1319-.38867.1319-.238976-.0001-.40529-.0735-.498047-.2198-.0926914-.1414-.1170277-.3127-.0732424-.5127l1.3701194-6.97261c.04393-.22943.15145-.41994.32226-.57129.17578-.15137.37598-.22754.60059-.22754h.03711l1.61816-4.84863c.10743-.322232.32717-.4833988.65918-.4833988z" fill="#000"/></svg>