<svg fill="none" height="16" viewBox="0 0 17 16" width="17" xmlns="http://www.w3.org/2000/svg"><path d="m15.7979 14.6367c.1611 0 .3007.0557.4179.168.117.1171.1758.2569.1758.418-.0001.1608-.0589.2999-.1758.4169-.1172.1172-.2568.1758-.4179.1758h-15.17583c-.161021 0-.299855-.0587-.416992-.1758-.1121911-.117-.1688318-.256-.1689452-.4169 0-.1612.0566406-.3008.1689452-.418.117135-.1122.255976-.168.416992-.168zm-7.58794-14.451153c.30762 0 .6084.085937.90137.256836l6.25487 3.610347c.2634.15134.3955.33995.3955.56446-.0001.15117-.0567.28821-.1689.41015-.1123.1219-.2687.18262-.4688.18262h-.6445v7.90334h.4687c.1514 0 .2666.041.3448.124.0828.083.124.1984.124.3447v.4903h-14.40626v-.4903c0-.1465.04102-.2617.12403-.3447.083-.083.20019-.124.35156-.124h.46191v-7.90334h-.64453c-.19992 0-.356478-.06088-.468749-.18262-.112184-.12194-.168825-.25898-.168945-.41015 0-.22949.131836-.41797.395504-.56446l6.25489-3.610347c.2832-.170899.58105-.256836.89355-.256836zm0 1.274413c-.0976 0-.19243.0274-.28516.08106l-4.87109 2.73144v8.84084h10.32029v-8.84084l-4.87107-2.73144c-.10254-.05372-.2002-.08106-.29297-.08106zm.00781 2.27051c.06814.00011.12413.02453.16797.07324.04883.04883.07324.10547.07324.16895v.62597c.26756.0239.53421.08849.79883.19434.34154.1367.62709.32729.85649.57129.2293.2392.3447.51476.3447.82715 0 .12691-.044.22265-.1319.28613-.0828.05849-.171.08779-.2636.08789-.09754 0-.18075-.0275-.24905-.08105-.06833-.05369-.12207-.1368-.16113-.24903-.09758-.30738-.26886-.53906-.5127-.69531-.19004-.12163-.41763-.19571-.68164-.22266v2.12305l.22754.05469c.33186.07811.63978.18561.92286.32226.28789.13182.51962.31261.69532.542.1758.22949.2637.52734.2637.89355 0 .4198-.1095.76667-.3291 1.04007-.2149.2685-.50102.4687-.85746.6006-.2884.1066-.5961.1681-.92286.1884v.6397c-.00012.0633-.02453.1192-.07324.1679-.04384.0488-.09983.0732-.16797.0733-.06824 0-.127-.0246-.17578-.0733-.04383-.0487-.06629-.1046-.0664-.1679v-.6406c-.23532-.0179-.47199-.0605-.70997-.129-.32203-.0975-.60558-.2463-.8496-.4462-.24403-.205-.41306-.469-.50586-.79106-.02922-.09738-.04387-.17583-.04395-.23437 0-.11707.03922-.20998.11719-.27832.07812-.06836.1709-.10254.27832-.10254.09766 0 .17871.02441.24219.07324.06324.04887.11731.12923.16113.24121.13183.35148.32914.60064.59277.74704.20401.1076.44333.1734.71778.1993v-2.2227l-.17579-.042c-.29785-.06836-.58593-.16601-.86425-.29297-.2782-.13177-.50785-.30971-.68848-.53418-.1757-.22939-.26359-.52756-.26367-.89355 0-.37598.10547-.69629.31543-.95996.20994-.26844.48545-.47368.82715-.61524.26814-.11108.55141-.17723.84961-.20117v-.62597c0-.06348.02246-.12012.0664-.16895.04878-.04866.10754-.07324.17578-.07324zm.24121 6.63283c.16963-.0132.33575-.0401.49805-.085.23438-.0635.42481-.1709.57129-.32225.15128-.15615.22745-.36839.22754-.63671 0-.33178-.12734-.57126-.38086-.71778-.25388-.14647-.54497-.25879-.87207-.33691l-.04395-.01074zm-.48339-5.04103c-.1399.01708-.27902.04681-.417.09277-.21972.07324-.40039.18359-.54199.33008-.14159.14648-.21289.33692-.21289.57129.00009.19997.0538.36631.16113.49804.1074.13171.24916.23932.42481.32227.17851.07718.37406.13892.58594.1875z" fill="#000"/></svg>