<svg fill="none" height="14" viewBox="0 0 30 14" width="30" xmlns="http://www.w3.org/2000/svg"><path d="m15.0127.625c.3123.000117.6222.122247.9297.366211l3.7363 2.937499h4.5625c.1561.00004.3029.02153.4395.06543.1365.03906.2638.09774.3808.17578l4.7168 3.28906c.1023.07319.168.16621.1973.27832.034.10724.0321.217-.0068.32911-.0342.10739-.1007.20021-.1983.27832-.0976.07316-.2247.11033-.3809.11035h-.7978v3.35452c-.0001.4977-.1417.8839-.4248 1.1572-.2782.2733-.6692.4101-1.1719.4102h-23.95018c-.50753 0-.90335-.1371-1.18652-.4102-.27823-.2734-.41788-.6594-.41797-1.1572v-3.35452h-.797852c-.156097 0-.283241-.03725-.380859-.11035-.097644-.07812-.1640588-.17092-.1982424-.27832-.0341248-.11216-.0360197-.22182-.006836-.32911.0293002-.11228.0976794-.20508.2050784-.27832l4.708981-3.28906c.11711-.07806.24425-.13673.38086-.17578.13663-.0439.28332-.06541.43946-.06543h4.56248l3.7363-2.937499c.3076-.243995.6154-.366211.9229-.366211zm-12.42188 10.9062c.00008.2293.05868.4054.17578.5274.11718.1169.28839.1758.5127.1758h3.8125c-.02603-.1312-.04099-.2726-.04102-.4248v-3.35452h-4.45996zm12.42188-9.63179c-.1172 0-.2246.04204-.3223.125l-6.49704 5.09082v4.41597c.00008.2293.05868.4054.17578.5274.11715.117.28832.1757.5127.1758h4.22656v-3.25979c0-.15132.046-.27345.1387-.36621.0976-.09269.2198-.13863.3662-.13867h2.8125c.1464.00003.2666.04593.3594.13867.0926.09274.1386.21496.1386.36621v3.25979h4.2266c.2243-.0001.3956-.0588.5127-.1758.117-.122.1757-.2981.1758-.5274v-4.41792l-6.4893-5.08887c-.1073-.0829-.2199-.12489-.3369-.125zm7.9687 9.91019c0 .1521-.0145.2936-.041.4248h3.8125c.2244-.0001.3956-.0589.5127-.1758.122-.122.1835-.2981.1836-.5274v-3.07612h-4.4678zm-17.32222-6.87015c-.02922.00494-.06363.02162-.10254.05078l-3.57422 2.46094h3.8916l3.2041-2.51953h-3.2871c-.05841.00001-.10257.00295-.13184.00781zm18.49902 2.51172h3.8984l-3.581-2.46094c-.0388-.02912-.0734-.04578-.1026-.05078-.0292-.00487-.0734-.0078-.1318-.00781h-3.2871z" fill="#000"/></svg>