<svg fill="none" height="18" viewBox="0 0 23 18" width="23" xmlns="http://www.w3.org/2000/svg"><path d="m21.8557 8.55048-5.82-2.92v-5.030005s0-.02 0-.03c0-.05-.02-.1-.03-.16 0-.03-.01-.06-.03-.09 0 0 0-.01 0-.02-.03-.05-.07-.09-.11-.13-.01-.01-.02-.03-.03-.04-.07-.0500002-.14-.0900002-.22-.1100002 0 0-.02 0-.03 0-.07-.02000001-.14-.02000001-.21-.01 0 0-.01 0-.02 0l-14.830039 2.6499952c-.33.06-.5399996.37-.4899996.7.06.33.3799996.54.6999996.49l11.180039-2.02-11.570039 6.34001c-.2899996.16-.3999996.51999-.24.80999.11.2.31.31.53.31.1 0 .2-.01999.29-.06999l13.910039-7.61001v4.02001l-5.79004 2.89999c-.5.17-.84.72-.84 1.42v5.74003c0 .89.57 1.59 1.29 1.59h11.87004c.73 0 1.29-.7 1.29-1.59v-5.80002c0-.64-.34-1.18-.8-1.34zm-.39 7.14002c0 .24-.1.38-.09.39h-5.66v-4.67c0-.55-.44-.99-.99-.99h-1.43c-.55 0-.99.44-.99.99v4.67h-2.77004s-.12-.17-.12-.39v-5.80002c0-.13.05-.22.04-.22.02 0 .09-.03.11-.04l5.75004-2.89001c.09-.03.18-.03.2-.03l5.89 2.94s.07.11.07.3v5.74003z" fill="#000"/></svg>