<svg fill="none" height="14" viewBox="0 0 31 14" width="31" xmlns="http://www.w3.org/2000/svg"><path d="m11.5537.451172c.27-.07.5603-.07.8203 0l2.6494.669918c.32.07999.5106.40955.4307.7295-.08.32-.4005.50968-.7305.42968l-2.6494-.66992h.0098c-.08-.02-.1605-.02-.2305 0l-9.54979 2.41016v7.95019c0 .2399.18988.4295.42969.4297h6.54004v-5.56935c0-.30998.25034-.57028.57031-.57031h2.15035c.3099.00018.5694.25043.5694.57031v5.56935h1.4502c.33 0 .6006.2706.6006.6006-.0002.3299-.2707.5996-.6006.5996h-11.29007c-.89992-.0001-1.62988-.73-1.62988-1.6299v-7.65039l-.30957.08008c-.319934.07998-.650382-.11957-.7304691-.43945-.08-.32.1204301-.65047.4404301-.73047zm10.4697.139648c.42-.18.8906-.18 1.3106 0l6.6699 2.87012v-.00977c.3096.13001.4499.48925.3203.78906-.1299.31991-.4901.45013-.79.32032l-.25-.10938v7.50973c-.0001.8999-.731 1.6299-1.6309 1.6299h-9.9892c-.9 0-1.6298-.73-1.6299-1.6299v-7.50973l-.25.10938c-.3.13-.6601-.01032-.7901-.32032-.1297-.30987.0196-.65979.3194-.7998h.0303zm.8506 1.09961c-.1199-.04997-.2501-.04992-.3701 0l-5.2598 2.25v8.03027c0 .24.1897.4297.4297.4297h1.9102v-5.56935c0-.30984.2496-.57004.5693-.57031h2.1504c.31 0 .5703.25031.5703.57031v5.56935h4.7793c.24 0 .4307-.1897.4307-.4297l.0098-.0098v-8.03024zm-16.23045 4.57031c.31481 0 .57032.25551.57032.57031v3c-.00019.31465-.25563.56935-.57032.56935h-2.14941c-.31468 0-.57012-.2547-.57031-.56935v-3c0-.3148.25551-.57031.57031-.57031z" fill="#000"/></svg>