<svg fill="none" height="18" viewBox="0 0 14 18" width="14" xmlns="http://www.w3.org/2000/svg"><path d="m4.24023 3.71826c0-.50781.12207-.96924.36622-1.38428.24902-.41992.58105-.75439.99609-1.00341.41504-.24903.87646-.373539 1.38428-.373539.51269 0 .97656.124509 1.3916.373539.41504.24902.74463.58349.98877 1.00341.24902.41504.37353.87647.37353 1.38428 0 .42969-.09033.82764-.27099 1.19385-.18067.36621-.42725.67871-.73975.9375s-.6665.43701-1.06201.53467v4.63622c0 .542-.02197 1.0205-.06592 1.4356-.04394.415-.1001.7641-.16846 1.0473-.06347.2832-.13671.4981-.21972.6445-.07813.1417-.15381.2125-.22705.2125-.07325 0-.14893-.0708-.22705-.2125-.07813-.1464-.15137-.3613-.21973-.6445s-.12451-.6323-.16846-1.0473c-.04394-.4151-.06592-.8936-.06592-1.4356v-4.63622c-.3955-.09766-.74951-.27588-1.06201-.53467s-.55908-.57129-.73974-.9375c-.17579-.36621-.26368-.76416-.26368-1.19385zm1.96289.14649c.25879 0 .48096-.09278.66651-.27832.18555-.19043.27832-.4126.27832-.66651 0-.2539-.09277-.47363-.27832-.65918-.18555-.18554-.40772-.27832-.66651-.27832-.24902 0-.46874.09278-.65917.27832-.18555.18555-.27833.40528-.27833.65918 0 .25391.09278.47608.27833.66651.19043.18554.41015.27832.65917.27832zm.79102 13.17625c-1.10352 0-2.0874-.0879-2.95166-.2637-.85937-.1709-1.58691-.4052-2.18262-.7031-.5957-.293-1.049801-.6274-1.362301-1.0034-.307618-.3711-.4614262-.7593-.4614262-1.1646 0-.3857.1098632-.7397.3295902-1.062.219726-.3271.512695-.6176.878907-.8715.36621-.2539.77148-.4688 1.21582-.6446.44922-.1806.90332-.3174 1.3623-.4101.46387-.0977.896-.1465 1.29639-.1465v1.0693c-.35156.0049-.73486.0562-1.1499.1538-.41504.0928-.80811.2222-1.1792.3882s-.67627.3638-.91553.5933c-.23437.2295-.35156.4809-.35156.7544 0 .3174.13428.6079.40283.8716.27344.2636.6543.4907 1.14258.6811.49316.1904 1.07178.3369 1.73584.4395.66894.1074 1.39892.1611 2.18994.1611.78613 0 1.51123-.0537 2.17529-.1611.66895-.1026 1.24757-.2515 1.73587-.4468.4931-.1905.8764-.4175 1.1499-.6812.2734-.2588.4101-.5468.4101-.8642 0-.2735-.1196-.5249-.3589-.7544-.2392-.2295-.5444-.4273-.9155-.5933s-.7641-.2954-1.1792-.3882c-.41014-.0976-.79344-.1489-1.14988-.1538v-1.0693c.40527 0 .8374.0488 1.29638.1465.4639.0927.918.2295 1.3623.4101.4492.1758.8569.3907 1.2232.6446.3662.2539.6567.5444.8715.8715.2198.3223.3296.6763.3296 1.062 0 .4053-.1538.7935-.4614 1.1646-.3076.376-.7593.7104-1.355 1.0034-.5957.2979-1.3257.5322-2.18992.7031-.85938.1758-1.84082.2637-2.94434.2637z" fill="#000"/></svg>