<svg width="1329" height="415" viewBox="0 0 1329 415" fill="none" xmlns="http://www.w3.org/2000/svg">
                    <path d="M1302.56 31.722C1268.1 31.722 1245.68 43.7544 1245.68 90.2436V126.888H1328.81V157.516H1245.68V409.104H1211.77V157.516H1087.07V409.104H1053.16V157.516H995.731V126.888H1053.16V93.5252C1053.16 22.4242 1090.35 0 1140.67 0C1151.06 0 1161.45 1.64077 1170.2 4.92238V36.0974C1164.19 33.9097 1152.15 31.722 1143.95 31.722C1109.49 31.722 1087.07 43.7544 1087.07 90.2436V126.888H1211.77V93.5252C1211.77 22.4242 1248.96 0 1299.28 0C1309.67 0 1320.06 1.64077 1328.81 4.92238V36.0974C1322.8 33.9097 1310.76 31.722 1302.56 31.722Z" fill="black"/>
                    <path d="M835.732 414.573C752.599 414.573 693.53 348.942 693.53 267.996C693.53 187.05 752.599 121.419 835.732 121.419C918.319 121.419 977.387 187.05 977.387 267.996C977.387 348.942 918.319 414.573 835.732 414.573ZM835.732 382.852C901.911 382.852 941.29 329.252 941.29 267.996C941.29 206.74 901.911 153.141 835.732 153.141C769.006 153.141 729.627 206.74 729.627 267.996C729.627 329.252 769.006 382.852 835.732 382.852Z" fill="black"/>
                    <path d="M674.721 157.516H591.587V320.501C591.587 366.991 614.011 379.023 648.468 379.023C656.672 379.023 668.704 376.835 674.721 374.648V405.823C665.97 409.104 655.578 410.745 645.186 410.745C594.869 410.745 557.677 388.321 557.677 317.22V157.516H434.618V409.104H400.708V157.516H343.281V126.888H400.708V93.5252C400.708 22.4242 437.9 0 488.217 0C498.609 0 509.001 1.64077 517.752 4.92238V36.0974C511.735 33.9097 499.703 31.722 491.499 31.722C457.042 31.722 434.618 43.7544 434.618 90.2436V126.888H557.677V45.9422L591.587 30.6281V126.888H674.721V157.516Z" fill="black"/>
                    <path d="M286.079 69.4602C270.218 69.4602 258.186 57.4277 258.186 41.5667C258.186 26.2527 270.218 13.6733 286.079 13.6733C301.94 13.6733 313.973 26.2527 313.973 41.5667C313.973 57.4277 301.94 69.4602 286.079 69.4602ZM269.125 126.888H303.034V409.104H269.125V126.888Z" fill="black"/>
                    <path d="M228.806 375.194V409.104H0.188477V15.3141H37.3798V375.194H228.806Z" fill="black"/>
                </svg>
