<svg fill="none" height="28" viewBox="0 0 156 28" width="156" xmlns="http://www.w3.org/2000/svg"><g fill="#000"><path d="m.75.0302734h11.3506c2.1359 0 3.8052.5221216 4.96 1.4347066 1.302 1.05938 2.0367 2.60761 2.0367 4.46456 0 2.14903-.9021 3.52016-2.7373 4.33586v.0984c2.4025.7824 3.7727 2.8679 3.7727 5.4104 0 2.4124-.9347 4.3026-2.5033 5.4437-1.302.9126-3.038 1.3697-5.3087 1.3697h-11.550549v-22.5573266zm10.23 8.8337466c1.2353 0 2.1033-.65076 2.1033-1.98861 0-1.27125-.9346-1.92205-2.1359-1.92205h-3.90598v3.87888h3.93698zm.5673 8.73538c1.3686 0 2.4024-.8142 2.4024-2.3155 0-1.5649-1.0849-2.3155-2.4365-2.3155h-4.47333v4.6279zm9.7153-17.5555019h5.9427v22.5891019h-5.9427z"/><path d="m28.3906 14.5694c0-5.08499 3.3713-8.5401 8.5792-8.5401 5.208 0 8.5126 3.45511 8.5126 8.5401 0 5.1153-3.3046 8.5402-8.5126 8.5402-5.2079 0-8.5792-3.4203-8.5792-8.5402zm11.2173 0c0-2.8028-.9346-4.59614-2.7047-4.59614s-2.635 1.76004-2.635 4.59614c0 2.8362.868 4.5963 2.635 4.5963 1.7701.0333 2.7047-1.7284 2.7047-4.5963z"/><path d="m46.2207 14.5694c0-5.08499 3.3712-8.5401 8.5792-8.5401s8.5126 3.45511 8.5126 8.5401c0 5.1153-3.3046 8.5402-8.5126 8.5402s-8.5792-3.4203-8.5792-8.5402zm11.2173 0c0-2.8028-.9346-4.59614-2.7047-4.59614s-2.635 1.76004-2.635 4.59614c0 2.8362.868 4.5963 2.635 4.5963 1.7701.0333 2.7047-1.7284 2.7047-4.5963z"/><path d="m64.5127 6.48642h5.5226v2.41236h.1008c1.085-1.89176 2.604-2.90119 4.96-2.90119 2.0692 0 3.6393 1.01098 4.4407 2.76956h.1007c1.3361-2.11877 3.1047-2.76956 5.1073-2.76956 3.8393 0 5.4745 2.76954 5.4745 6.45321v10.17h-5.8093v-9.1258c0-1.6617-.5348-2.7241-2.0026-2.7241-1.4353 0-2.17 1.3045-2.17 3.0646v8.8005h-5.7427v-9.1258c0-1.6618-.5348-2.7242-2.0026-2.7242-1.4353 0-2.17 1.3046-2.17 3.0646v8.8005h-5.8094v-16.1329zm33.0505 14.01418h-.0666v2.0854h-5.5087v-22.586h5.7923v8.14817h.1008c1.085-1.40141 2.57-2.14905 4.707-2.14905 4.139 0 6.541 3.65032 6.541 8.50528 0 5.4755-2.604 8.6386-6.91 8.6386-1.836 0-3.6731-.8475-4.6728-2.6409zm5.6418-6.0295c0-2.6076-.969-4.2678-2.737-4.2678-1.7686 0-2.9048 1.6618-2.9048 4.2678 0 2.5728 1.1346 4.2679 2.9048 4.2679 1.77 0 2.737-1.6618 2.737-4.2679zm6.575.0333c0-5.01992 3.406-8.54011 8.345-8.54011 2.471 0 4.34.74917 5.81 2.08551 1.903 1.79338 2.771 4.628 2.705 7.9211h-11.083c.233 2.0204 1.235 3.0314 2.971 3.0314 1.002 0 1.904-.4571 2.271-1.5316h5.576c-.969 3.6836-3.906 5.5391-8.06 5.5391-5.108.0333-8.547-3.325-8.547-8.5054zm5.776-1.6617h5.274c-.101-1.9553-1.201-2.96622-2.57-2.96622-1.602 0-2.47 1.10782-2.704 2.96622zm17.66-3.58672h.101c1.201-2.24892 2.771-3.09646 4.74-3.09646.468 0 .767.06508.934.16345v4.95493h-.133c-3.405-.5872-5.425.9776-5.425 4.6279v6.715h-5.809v-16.1026h5.508v2.72415z"/><path d="m139.661 22.6212h5.576c.201.6841.934 1.3696 2.337 1.3696 1.869 0 2.503-1.1411 2.503-2.8028v-1.1729h-.133c-.935 1.0594-2.136 1.8252-3.973 1.8252-3.572 0-6.643-2.5728-6.643-7.5943 0-4.62797 2.537-8.21475 6.377-8.21475 2.201 0 3.573.88079 4.441 2.24891h.1v-1.76008h5.504v13.95062c0 2.5727-.934 4.5961-2.303 5.769-1.435 1.2713-3.503 1.7601-5.843 1.7601-4.34 0-7.409-1.7601-7.946-5.3786zm10.649-8.6718c0-2.0204-.969-3.6322-2.671-3.6322-1.635 0-2.67 1.4347-2.67 3.6322 0 2.149 1.035 3.7154 2.67 3.7154 1.702 0 2.671-1.5967 2.671-3.7154z"/></g></svg>