<svg width="137" height="24" viewBox="0 0 137 24" fill="none" xmlns="http://www.w3.org/2000/svg">
<g clip-path="url(#clip0_21087_2226)">
<path d="M82.6228 0.595703V15.3421L71.8895 0.595703H66.6777V23.4062H71.5615V8.62486L82.2948 23.4062H87.5065V0.595703H82.6228Z" fill="black" style="fill:black;"/>
<path d="M107.351 16.2167C107.351 14.0301 105.584 13.4703 103.853 13.4703H96.3082V18.9106H104.035C105.456 18.9106 107.37 18.4033 107.37 16.2167H107.351ZM96.3082 4.88142V9.20212H103.925C105.183 9.20212 106.568 8.65984 106.568 7.06801C106.568 5.47617 105.493 4.89891 103.761 4.89891H96.3265L96.3082 4.88142ZM112.381 16.2167C112.381 22.4266 107.534 23.4062 104.509 23.4062H91.5885V0.595703H104.49C108.445 0.595703 111.616 2.90474 111.616 7.22544C111.616 9.35955 110.139 10.5491 109.028 11.1263C110.868 12.0709 112.381 13.4703 112.381 16.2167Z" fill="black" style="fill:black;"/>
<path d="M137 19.6792C134.558 21.8308 131.934 23.9999 126.74 23.9999C119.834 23.9649 114.495 18.4722 114.495 11.9474C114.531 5.23024 120.089 -0.0175781 126.813 -0.0175781C132.626 -0.0175781 135.779 3.81333 136.18 4.23315L132.517 7.99408C131.715 7.15443 129.984 5.26522 126.777 5.26522C122.877 5.26522 119.688 8.27397 119.688 11.9474C119.688 15.1661 122.385 18.6297 126.74 18.6297C130.221 18.6297 131.497 17.4576 133.629 15.6209L136.982 19.6442L137 19.6792Z" fill="black" style="fill:black;"/>
<path d="M64.4362 19.6792C61.9944 21.8308 59.3703 23.9999 54.1767 23.9999C47.2702 23.9649 41.9309 18.4722 41.9309 11.9474C41.9674 5.23024 47.5253 -0.0175781 54.2496 -0.0175781C60.0627 -0.0175781 63.2153 3.81333 63.6162 4.23315L59.9534 7.99408C59.1516 7.15443 57.4204 5.26522 54.2132 5.26522C50.3135 5.26522 47.1244 8.27397 47.1244 11.9474C47.1244 15.1661 49.8214 18.6297 54.1767 18.6297C57.6573 18.6297 58.9329 17.4576 61.065 15.6209L64.418 19.6442L64.4362 19.6792Z" fill="black" style="fill:black;"/>
<path d="M28.0998 5.73761L22.4142 19.0845L20.7924 7.48688C20.5919 5.91254 23.1978 4.93294 23.1978 4.93294C22.9609 4.39067 22.1226 4.39067 22.1226 4.39067H20.355C20.0817 1.53936 22.5964 -0.542274 25.3299 0.104956C28.0086 0.717201 28.9745 3.70846 28.118 5.73761" fill="black" style="fill:black;"/>
<path d="M17.5122 23.4059L6.41444 15.8141C3.58989 13.8724 0.801781 15.8491 0.200424 17.8957C-0.674277 20.9044 1.2938 23.4059 4.35525 23.4059H17.5122Z" fill="black" style="fill:black;"/>
<path d="M18.9701 4.60013C19.3892 1.66135 16.8015 -0.525236 14.0316 0.121994C11.3529 0.734239 10.3871 3.72549 11.2435 5.75465L16.9291 19.1016L18.9701 4.60013Z" fill="black" style="fill:black;"/>
<path d="M16.4918 21.2895L11.0249 8.50236C9.7493 5.54609 6.35984 5.17874 4.48288 6.91052C3.17082 8.13501 2.15034 11.4761 5.08423 13.4878L16.4918 21.2895Z" fill="black" style="fill:black;"/>
<path d="M34.988 23.4059C38.0677 23.4059 40.0175 20.9044 39.1428 17.8957C38.5597 15.8491 35.7534 13.8724 32.9288 15.8141L21.8311 23.4059H34.988Z" fill="black" style="fill:black;"/>
<path d="M34.2591 13.4878C37.193 11.4586 36.1907 8.13501 34.8605 6.91052C32.9835 5.17874 29.594 5.54609 28.3184 8.50236L22.8516 21.2895L34.2591 13.4878Z" fill="black" style="fill:black;"/>
</g>
<defs>
<clipPath id="clip0_21087_2226">
<rect width="137" height="24" fill="white" style="fill:white;fill-opacity:1;"/>
</clipPath>
</defs>
</svg>
