<svg fill="none" height="26" viewBox="0 0 169 26" width="169" xmlns="http://www.w3.org/2000/svg"><path d="m14.2242 4.29614h.2816v-3.71031h-14.5058v.25108c1.66183 1.33906 1.91533 1.72961 1.91533 3.20816v17.93773c0 1.4786-.22533 1.8691-1.91533 3.2082v.2511h7.54867v-.2511c-1.69-1.2554-1.99984-1.7296-1.99984-3.1524v-8.8991h1.63367c2.14067 0 2.50683.1395 4.3377 2.4549h.2535v-5.83045h-.2535c-1.83087 2.28755-2.19703 2.45495-4.3377 2.45495h-1.63367v-10.71246h2.47867c1.014 0 1.859.33476 6.1967 2.7897zm5.746 10.54506h-5.0419l2.3942-7.22532c.1127.25107.2253.55794.338.89271zm3.9433 2.1202-4.3658-11.91205h-3.9434v.22318c.5634.50215.9014.8927 1.2112 1.33905l-3.2673 9.84762c-.6197 1.7575-.9859 2.3155-2.4787 3.7103v.2511h4.5912v-.2511c-1.2675-.7532-1.6619-1.2553-1.6619-1.9807 0-.3626.1127-.8369.3662-1.6459l.2817-.8648h5.6051l.507 1.3949c.3099.8927.3662 1.2553.3662 1.5901 0 .53-.3662.9485-1.3238 1.4785v.2511h6.3938v-.2232c-1.4647-1.2274-1.7182-1.6459-2.2815-3.2081zm9.633-12.66526h.2817v-3.598715c-1.4084-.251073-2.9857-.446354-4.4222-.446354-4.1968 0-6.2812 2.789699-6.2812 5.746789 0 3.43133 2.2534 5.46784 5.0982 7.83904 3.0983 2.5665 4.9292 4.1288 4.9292 7.0859 0 2.4549-1.6337 3.9334-3.8025 3.9334-1.9154 0-3.4082-.7532-7.4079-3.8498h-.338l1.4647 4.0451c1.7463.5022 3.5772.7532 5.408.7532 4.7883 0 7.5768-2.8734 7.5768-6.8905 0-3.6824-2.1688-5.5794-5.2671-8.0623-2.8449-2.28752-4.7884-4.12873-4.7884-6.77894 0-1.72962 1.1549-2.90129 2.9294-2.90129 1.2111 0 2.0561.47425 4.6193 3.12447zm18.4492 0h.2816v-3.71031h-17.1253v3.71031h.2817c4.0278-2.53863 4.8446-2.8734 5.8023-2.8734h.6478v20.61586c0 1.4228-.2816 1.897-1.9998 3.1524v.2511h7.6332v-.2511c-1.69-1.2554-1.9999-1.7296-1.9999-3.1524v-20.61586h.6479c.9576.0279 1.7745.36267 5.8305 2.8734zm21.8291-.66953h.2817v-3.180265c-1.69-.251073-3.887-.446345-5.8587-.446345-8.9006 0-14.1678 4.90987-14.1678 13.0558 0 8.0064 5.0418 12.9442 13.8298 12.9442 2.2815 0 4.3377-.3348 5.9714-.7811l.6478-3.5429h-.2817c-3.2955 2.7618-4.7601 3.4034-7.1261 3.4034-6.5629 0-8.7599-4.9099-8.7599-12.191 0-7.3927 2.197-11.912005 8.4219-11.912005 1.9435 0 3.3518.474245 7.0416 2.650215zm-.845 9.28969c0 4.1009-.3661 6.8069-3.3518 6.8069-3.0138 0-3.3518-2.706-3.3518-6.8069 0-4.10085.338-6.80686 3.3518-6.80686 3.0138-.0279 3.3518 2.67811 3.3518 6.80686zm3.549 0c0-4.32403-2.5913-7.58798-6.9008-7.58798s-6.9008 3.29185-6.9008 7.58798c0 4.2961 2.5913 7.588 6.9008 7.588 4.3095-.0279 6.9008-3.3198 6.9008-7.588zm15.4072 12.4979 7.4642.0558v-.2511c-1.6619-1.3391-1.9154-1.7296-1.9154-3.2082v-17.93774c0-1.47855.2254-1.8691 1.9154-3.180261v-.251071l-5.2672-.027899-5.8587 18.384171-5.9995-18.356272h-5.3235v.251071c1.014.864811 1.6337 1.422751 2.0844 2.008591v17.37981c0 2.0086-.2535 2.8176-2.1407 4.9657v.2511h5.9713v-.2511c-2.5068-2.0644-2.873-2.8734-2.873-4.9657v-15.48282c.0282.11159.0845.22318.1127.36267l6.7318 20.53215h.2817l6.7318-21.14589v17.46349c0 1.4786-.2253 1.8691-1.9153 3.1803 0-.0279 0 .2232 0 .2232zm21.547-17.21248c0 4.65878-1.098 6.61158-4.703 6.61158h-2.057v-13.30686h1.465c3.972 0 5.295 1.67382 5.295 6.69528zm3.916-.16739c0-5.60729-3.944-7.4485-9.324-7.4485h-6.9v.25108c1.661 1.33906 1.915 1.72961 1.915 3.20816v17.93773c0 1.4786-.225 1.8691-1.915 3.2082v.2511h7.52v-.2511c-1.69-1.2554-2-1.7296-2-3.1524v-6.3326h1.972c4.732.0279 8.732-1.9807 8.732-7.67167zm9.182 8.34117h-7.098l3.493-12.52572c.084.22318.14.44635.225.69743zm42.419-15.53859v-.25108h-5.661v.25108c1.52 1.33906 1.999 1.98068 1.999 2.95708 0 .53004-.112.9206-.535 1.897l-3.267 7.53221-4.253-9.34552c-.338-.72532-.451-1.11588-.451-1.47854 0-.66953.366-1.03219 1.408-1.56223v-.25108h-12.562v.25108c2.817 2.06438 3.183 2.87339 3.183 5.13305v14.31114l-10.478-19.667371h-5.211v.251071c1.098.9206 1.718 1.50645 2.253 2.20387v17.24033c0 1.8691-.197 2.6781-1.718 4.9099-1.155-1.4228-1.408-2.1202-2-4.1567l-5.915-20.448471h-5.098v.251071c.789.69743 1.296 1.17168 1.69 1.72962l-4.957 17.54718c-.704 2.5387-1.268 3.3198-3.155 5.0773v.2511h6.084v-.2511c-1.746-1.3112-2.281-1.9807-2.281-3.0966 0-.4463.112-1.088.366-1.9807l.788-2.8176h7.634l1.07 3.7103c.338 1.1717.451 1.646.451 2.1202 0 .6416-.282 1.088-1.55 2.0644v.2511h12.732v-.2511c-2.817-2.0644-3.183-2.8734-3.183-4.9099v-15.70599c.028.02789.028.08368.056.11158l11.07 20.75541h2.309v-19.50004c0-2.06438.198-2.8734 1.662-5.10516.93 1.14378 1.549 2.09228 2.31 3.79399l4.535 9.90341v7.5322c0 1.3949-.282 1.897-2 3.1524v.2511h7.633v-.2511c-1.69-1.2554-2-1.7296-2-3.1524v-7.6438l3.775-8.67593c.76-1.86909 1.38-2.7339 3.267-4.93776z" fill="#000"/></svg>