<svg fill="none" height="32" viewBox="0 0 138 32" width="138" xmlns="http://www.w3.org/2000/svg"><path d="m27.7459 10.7798c1.3474-.4819 2.6034-.6884 4.0422-.6884 2.4207 0 4.0422.5737 4.91 1.9504.5709.7802.8678 1.8357.8678 3.9697v5.92c0 .9638.7764 1.4456 1.5529 1.6521l-1.5529 2.8224c-.4796 0-1.0505-.1836-1.5529-.3901-.8679-.2983-1.553-.8719-1.827-1.7439-.1827.3901-.5709.7802-.8678 1.0555-.7765.7802-2.0325 1.1703-3.1744 1.1703-3.083 0-5.2069-1.4456-5.2069-4.7498 0-3.3043 2.1239-4.9334 6.9425-5.1399.1827 0 1.553-.0918 1.7357-.0918v-.9637c0-1.8357-.3883-2.3176-2.2152-2.3176-1.4388 0-2.809.5737-4.7273 1.4456l-1.1647-2.9141c.7993-.4131 1.2789-.6884 2.238-.9867zm4.4533 8.3294c-2.5121.2983-3.2886.6884-3.2886 2.4323 0 1.4455.8678 2.1339 2.0325 2.1339s1.9412-.4818 2.5121-1.0555v-3.6943zm12.1493-16.56701v23.56551h-4.0422v-23.56551zm6.5543 0v23.56551h-4.0422v-23.56551zm-50.6528 3.18949 5.20687 20.35312h4.63593l2.9003-14.456 2.9003 14.456h4.5446l5.2069-20.35312h-4.1564l-3.083 15.02962-2.9916-15.02962h-4.5446l-2.9917 15.12142-2.99166-15.12142zm71.2062 5.04812c1.3474-.4819 2.6034-.6884 4.0422-.6884 2.4207 0 4.0421.5737 4.91 1.9504.5709.7802.8678 1.8357.8678 3.9697v5.92c0 .9638.7764 1.4456 1.5529 1.6521l-1.5529 2.8224c-.4796 0-1.0505-.1836-1.6443-.3901-.7765-.2983-1.4387-.8719-1.7356-1.7439-.1827.3901-.571.7802-.8678 1.0555-.7765.7802-2.0326 1.1703-3.1744 1.1703-3.083 0-5.2069-1.4456-5.2069-4.7498 0-3.3043 2.1239-4.9334 6.9425-5.1399.1827 0 1.5529-.0918 1.7356-.0918v-.9637c0-1.8357-.3882-2.3176-2.2152-2.3176-1.4387 0-2.8089.5737-4.7272 1.4456l-1.1647-2.9141c.7079-.4131 1.2788-.6884 2.238-.9867zm4.4532 8.3294c-2.512.2983-3.2885.6884-3.2885 2.4323 0 1.4455.8678 2.1339 2.0325 2.1339s1.9412-.4818 2.5121-1.0555v-3.6943zm37.5216 5.6217c-1.439.9638-3.471 1.7439-5.801 1.7439-4.91 0-7.9014-3.0059-7.9014-8.2376 0-2.7076.6854-4.658 1.9414-6.1036 1.347-1.4456 3.083-2.13397 5.298-2.13397 2.124 0 3.768.68837 4.819 1.74387 1.256 1.3538 1.827 3.396 1.827 6.3102v1.3538h-9.661c0 2.8223 1.827 3.7861 3.86 3.7861 1.644 0 3.083-.4819 4.545-1.1703zm-4.042-8.031v-.2983c0-2.134-.571-3.6943-2.604-3.6943-1.644 0-2.695.8719-2.809 3.8778zm13.885-6.70027c.776 0 1.256.09177 1.735.29827l-.868 3.5796c-.479-.1836-.959-.2983-1.735-.2983-1.165 0-2.124.3901-2.992 1.0555v11.3353h-4.156v-11.45c0-.9637-.092-3.4878-.297-3.8779l3.174-.4818c.183.2982.959 2.1339.959 2.6158.571-.9637 1.439-1.9504 2.307-2.3176.617-.2753 1.393-.45887 1.873-.45887zm-66.7761.18357c.2969.3901.7764 1.8357.7764 2.0422.9592-1.5603 2.809-2.22577 4.2477-2.22577 1.2561 0 2.4208.39007 3.3799.96377 1.7357 1.1702 2.809 3.396 2.809 6.9755 0 3.3043-.7765 5.53-2.4207 6.9756-1.0505.9637-2.5121 1.5603-4.2477 1.5603-1.6443 0-2.809-.4818-3.6768-1.1702v1.4456 4.7498h-3.9508v-16.9571c0-.9637-.0914-3.4878-.1827-3.8778zm3.7681 13.4004c1.1647 0 1.9412-.1835 2.5121-1.1702.4796-.872.6851-2.3175.6851-4.5662 0-1.6522-.1827-2.8224-.5709-3.5796-.3883-.7802-1.1647-1.0555-2.2152-1.0555-1.1647 0-2.1239.39-3.083 1.1702v8.2376c.548.4589 1.5072.9637 2.6719.9637zm26.8336-13.4004c.2969.3901.7765 1.8357.7765 2.0422.9592-1.5603 2.809-2.22577 4.2477-2.22577 1.256 0 2.4207.39007 3.3799.96377 1.7356 1.1702 2.809 3.396 2.809 6.9755 0 3.3043-.7765 5.53-2.4208 6.9756-1.0505.9637-2.512 1.5603-4.2477 1.5603-1.6442 0-2.8089-.4818-3.6768-1.1702v1.4456 4.7498h-3.9508v-16.9571c0-.9637-.0913-3.4878-.1827-3.8778zm3.7682 13.4004c1.1647 0 1.9411-.1835 2.512-1.1702.4796-.872.6852-2.3175.6852-4.5662 0-1.6522-.1827-2.8224-.571-3.5796-.3882-.7572-1.1647-1.0555-2.2152-1.0555-1.1647 0-2.1238.39-3.083 1.1702v8.2376c.5481.4589 1.5073.9637 2.672.9637zm38.7772-23.0836v3.96966l-3.859-1.26203-.959 2.82235 3.95 1.17024-2.42 3.30418 2.306 1.6522 2.421-3.18954 2.307 3.18954 2.306-1.6522-2.306-3.30418 3.859-1.17024-.868-2.82235-3.951 1.26203v-3.96966z" fill="#000"/></svg>