<svg fill="none" height="36" viewBox="0 0 64 36" width="64" xmlns="http://www.w3.org/2000/svg"><path d="m10.936 1.10038v.684l.635.146c.976.244 1.123.82999 1.513 2.68499l1.016 5.215-2.832 15.23303-3.857-19.14002c-.44-2.1-.586-3.66201.977-4.00401l.732-.146v-.67299h-9.12v.684l.928.24499c.928.244 1.318.68301 1.953 3.56401l6.2 29.34302h1.6l4.15-22.166 4.6 22.166h1.27l5.957-28.43603c.684-3.27.977-4.2 2.15-4.5l.927-.245v-.65499h-6.7v.684l1.025.19499c1.465.293 1.806 1.22 1.122 4.98l-3.652 18.10403-3.7-19.14002c-.4-1.904-.635-3.662.977-3.955l1.074-.19501v-.684zm43.444.092v.684l1.22.293c1.073.244 1.513.63499 1.513 2.00199v23.68003c0 2.636 0 6.103-2.735 6.103-1.562 0-2.78-1.367-2.684-2.295.097-1.513 2.734-1.416 2.88-3.857.147-1.7-.928-2.5-2.002-2.637-1.513-.195-3.368 1.074-3.418 3.613-.048 3.27 2.1 6.248 5.76 6.248 4.05 0 6.7-2.732 6.7-7.957l.001-22.85003c0-1.367.342-1.80699 1.318-2.04999l1.067-.30401v-.684zm-16.45-.208005c-4.15 0-6.493 3.466995-6.493 8.006995 0 8.44703 10.888 11.71803 10.888 19.33503 0 3.613-1.514 5.614-3.7 5.614-3.27 0-5.615-3.953-6.2-10.252h-.732v11.132h.586c.488-1.6 1.123-1.757 1.66-1.757.928 0 1.903 1.95 4.735 1.95 4.345 0 7.176-3.758 7.178-8.936 0-10.155-10.888-12.645-10.888-19.92003 0-1.66.488-4.1 2.93-4.1 3.516 0 5.03 4.638 5.615 10.25303h.732v-11.13002h-.586c-.244 1.074-.683 1.562-1.318 1.562-1.123 0-1.7-1.757006-4.394-1.757006zm7.86 9.575025v.12l.023-.014-.012-.1z" fill="#000"/></svg>