<svg fill="none" height="15" viewBox="0 0 15 15" width="15" xmlns="http://www.w3.org/2000/svg"><path d="m7.4707 0c1.03028 0 1.99707.193359 2.9004.579102.9032.385736 1.6973.922898 2.3809 1.611328.6833.68348 1.2178 1.47678 1.6035 2.37988.3906.90332.5859 1.87012.5859 2.90039 0 1.03028-.1953 1.99707-.5859 2.9004-.3858.9033-.92 1.6973-1.6035 2.3809-.6836.6835-1.4776 1.2177-2.3809 1.6035-.90333.3906-1.87012.5859-2.9004.5859-1.03027 0-1.99707-.1953-2.90039-.5859-.9031-.3857-1.6964-.9202-2.37988-1.6035-.68355-.6836-1.22071-1.4777-1.611328-2.3809-.385743-.90333-.579102-1.87012-.579102-2.9004 0-1.03027.193359-1.99707.579102-2.90039.390618-.90324.927778-1.69633 1.611328-2.37988.68355-.68843 1.47664-1.225592 2.37988-1.611328.90332-.385743 1.87012-.579102 2.90039-.579102zm6.0449 8.98242c-.2124.09991-.447.19527-.7051.2832-.659.22458-1.4406.4004-2.3437.52735-.90319.12205-1.89961.1826-2.98828.18262-.43215 0-.85001-.013-1.25293-.03223.00756.08794.01397.17494.02246.25974.07812.7762.18264 1.423.31445 1.9405.13184.5175.27637.9062.43262 1.165.16014.257.31533.3853.46582.3867.00325 0 .00651.001.00976.001.85938 0 1.66504-.1611 2.417-.4834.7519-.3223 1.4141-.7686 1.9853-1.3399.5713-.5712 1.0176-1.2334 1.3399-1.9853.1258-.2935.226-.59542.3027-.90528zm-12.09275-.00781c.07693.31268.17879.61705.30567.91309.32226.7519.76953 1.4141 1.34082 1.9853.57117.5711 1.23263 1.0177 1.98437 1.3399.28827.1235.58462.2226.88867.2988-.10165-.2133-.19777-.4496-.28808-.709-.22461-.6591-.39746-1.4404-.51953-2.3437-.02646-.1958-.04959-.3961-.07032-.6006-.1953-.02006-.38689-.04012-.57422-.06543-.90305-.12692-1.68469-.30283-2.34375-.52735-.26522-.09037-.50662-.18799-.72363-.29101zm6.03809-7.72949c-.15061.00138-.30556.13127-.46582.38867-.15622.25879-.30081.64658-.43262 1.16406-.13183.51757-.23633 1.16702-.31445 1.94824-.07813.77637-.11719 1.68457-.11719 2.72461 0 .45879.00823.89236.02344 1.30078.41512.01578.85682.0254 1.32422.0254 1.03983-.00002 1.94836-.03908 2.72458-.11719.7811-.083 1.4308-.1885 1.9483-.31543.5172-.13177.9053-.27549 1.164-.43164.222-.13401.3473-.26705.3789-.39746.0002-.02146.002-.04293.002-.06446 0-.85937-.1611-1.66504-.4834-2.41699-.3222-.75662-.7688-1.41808-1.3399-1.98437-.5712-.57129-1.2334-1.01856-1.9853-1.34082-.75196-.32227-1.55762-.4834-2.417-.4834-.00325 0-.00651-.00001-.00976 0zm-1.51856.18359c-.30413.07619-.60033.17623-.88867.29981-.75195.32226-1.41309.76953-1.98437 1.34082-.57129.5664-1.01856 1.22754-1.34082 1.98437-.32227.75195-.4834 1.55762-.4834 2.41699h.00781c0 .15137.12891.30567.38769.46192.25879.1562.64761.29984 1.16504.43164.51751.1269 1.1643.23244 1.94043.31543.07712.00771.15572.01258.23536.01953-.01848-.39551-.03028-.80493-.03028-1.22852 0-1.08886.06153-2.08496.1836-2.98828.12207-.90329.29492-1.68458.51953-2.34375.09042-.25973.18628-.49647.28808-.70996z" fill="#000"/></svg>