<svg fill="none" height="17" viewBox="0 0 8 17" width="8" xmlns="http://www.w3.org/2000/svg"><path d="m.0011268 1.11458c-.00976562-.180666.0439453-.336916.1611332-.468752.12207-.131836.273437-.205078.454101-.219727.180664-.014648.336914.041504.468749.168457.13184.122071.20264.273438.2124.454102l.13916 2.53418.76172.54199c.17578.12695.3418.21485.49805.26367.15625.04883.34424.07325.56396.07325h1.52344c.57617 0 1.08154.1123 1.51611.33691.43946.22461.78125.53955 1.0254.94482.24902.40039.37353.87159.37353 1.41358v3.14944c0 .1806-.06348.3344-.19043.4614s-.28076.1904-.46142.1904c-.18067 0-.33448-.0634-.46143-.1904s-.19043-.2808-.19043-.4614v-2.81985c0-.15625-.07813-.23438-.23438-.23438-.16113 0-.24169.07813-.24169.23438v8.48875c0 .2002-.06836.3687-.20508.5054s-.30518.2051-.50537.2051c-.2002 0-.3711-.0684-.5127-.2051-.13672-.1367-.20508-.3052-.20508-.5054v-5.1416c0-.0683-.02441-.1269-.07324-.1758-.04883-.0488-.10498-.0732-.16846-.0732-.06836 0-.12695.0244-.17578.0732-.04883.0489-.07324.1075-.07324.1758v5.1416c0 .2002-.0708.3687-.2124.5054-.13672.1367-.30274.2051-.49805.2051-.20019 0-.37109-.0684-.51269-.2051-.13672-.1367-.20508-.3052-.20508-.5054v-9.55809c0-.1709-.02686-.29297-.08057-.36621-.05371-.07812-.12939-.15137-.22705-.21973l-1.589355-1.16455c-.166016-.12207-.29541-.25634-.388184-.40283-.08789-.15137-.136718-.34424-.146484-.57861zm4.2480432 2.52685c-.29785 0-.5664-.0708-.80566-.2124-.23926-.14648-.43213-.33935-.57861-.57861-.14161-.24414-.21241-.5127-.21241-.80567 0-.29785.0708-.5664.21241-.80566.14648-.239258.33935-.429688.57861-.57129.23926-.146484.50781-.219726.80566-.219726.29297 0 .55909.073242.79834.219726.24414.141602.43702.332032.57862.57129.14648.23926.21972.50781.21972.80566 0 .29297-.07324.56153-.21972.80567-.1416.23926-.33448.43213-.57862.57861-.23925.1416-.50537.2124-.79834.2124z" fill="#000"/></svg>