<svg fill="none" height="16" viewBox="0 0 17 16" width="17" xmlns="http://www.w3.org/2000/svg"><path d="m15.7617 14.4512c.1612 0 .3008.0556.418.1679.117.1172.1758.257.1758.418-.0001.1608-.0589.3-.1758.417-.1172.1172-.2568.1758-.418.1758h-15.175762c-.161021 0-.299856-.0588-.416993-.1758-.1121909-.1171-.16883166-.2561-.168945-.417 0-.1611.0566406-.3008.168945-.418.117135-.1121.255976-.1679.416993-.1679zm-7.58787-14.4512c.30762 0 .6084.0859375.90137.256836l6.2549 3.610354c.2634.15133.3955.33995.3955.56445-.0001.15117-.0568.28822-.169.41016-.1122.12189-.2687.18261-.4687.18261h-.6445v7.90329h.4687c.1514 0 .2666.0411.3447.1241.0829.0829.1241.1983.1241.3447v.4902h-14.406291v-.4902c0-.1465.041011-.2617.124021-.3447s.2002-.1241.35157-.1241h.46191v-7.90329h-.64453c-.19992 0-.356481-.06088-.468752-.18261-.112184-.12194-.168825-.25899-.168945-.41016 0-.22949.131836-.41797.395507-.56445l6.25488-3.610354c.28321-.1708985.58106-.256836.89356-.256836zm0 1.27441c-.0976 0-.19243.02741-.28516.08106l-4.87109 2.73144v8.84079h10.32032v-8.84079l-4.8711-2.73144c-.10254-.05371-.2002-.08106-.29297-.08106zm.00781 2.27051c.06814.00012.12413.02453.16797.07324.04883.04883.07324.10547.07324.16895v.62598c.26756.02389.5342.08848.79883.19433.34154.1367.62708.32729.85642.57129.2294.2392.3448.51476.3448.82715 0 .12691-.0441.22266-.1319.28613-.0828.05849-.1711.08779-.2637.08789-.09747 0-.18068-.0275-.24898-.08105-.06833-.05369-.12207-.1368-.16113-.24903-.09758-.30737-.26886-.53906-.5127-.69531-.19004-.12163-.41763-.1957-.68164-.22265v2.12304l.22754.05469c.33185.07812.63978.18561.92285.32227.2879.13182.51966.3126.69536.54199.1757.22949.2636.52734.2636.89355 0 .4198-.1095.76664-.3291 1.04002-.21482.2686-.50095.4688-.8574.6006-.28839.1067-.5961.1681-.92285.1885v.6396c-.00012.0633-.02454.1193-.07324.168-.04384.0487-.09983.0731-.16797.0732-.06824 0-.127-.0245-.17578-.0732-.04383-.0487-.06629-.1047-.06641-.168v-.6406c-.23531-.0179-.47198-.0604-.70996-.1289-.32203-.0976-.60559-.2463-.84961-.4463-.24402-.205-.41306-.46894-.50586-.791-.02921-.09739-.04386-.17584-.04394-.23438 0-.11706.03922-.20998.11719-.27832.07812-.06836.17089-.10254.27832-.10254.09765 0 .17871.02442.24218.07324.06324.04887.11732.12923.16114.24122.13183.35147.32914.6006.59277.74707.20401.10761.44332.17341.71777.19921v-2.22265l-.17578-.04199c-.29785-.06836-.58594-.16602-.86426-.29297-.27819-.13178-.50784-.30971-.68847-.53418-.17571-.22939-.2636-.52757-.26367-.89356 0-.37597.10546-.69629.31543-.95996.20993-.26844.48545-.47367.82714-.61523.26814-.11109.55142-.17724.84961-.20117v-.62598c0-.06348.02246-.12012.06641-.16895.04878-.04866.10754-.07324.17578-.07324zm.24121 6.63278c.16963-.0131.33575-.04.49805-.0849.23437-.0635.4248-.17092.57129-.32229.15127-.15616.22744-.3684.22754-.63672 0-.33178-.12734-.57126-.38086-.71777-.25388-.14647-.54497-.25879-.87207-.33692l-.04395-.01074zm-.4834-5.04098c-.13989.01708-.27902.04681-.41699.09277-.21973.07324-.40039.1836-.54199.33008s-.21289.33692-.21289.57129c.00009.19998.0538.36632.16113.49805.10739.1317.24915.23932.42481.32226.17851.07718.37405.13892.58593.1875z" fill="#000"/></svg>