<svg fill="none" height="14" viewBox="0 0 30 14" width="30" xmlns="http://www.w3.org/2000/svg"><path d="m14.9766.685547c.3123.000079.6222.122209.9296.366213l3.7364 2.9375h4.5625c.1561.00003.3028.02151.4394.06543.1366.03906.2638.09771.3809.17578l4.7168 3.28906c.1023.0732.168.16617.1973.27832.034.10727.0321.21697-.0069.3291-.0342.10743-.1006.2002-.1982.27832-.0977.07319-.2247.11035-.3809.11035h-.7978v3.35448c-.0001.4978-.1417.8839-.4248 1.1572-.2783.2734-.6692.4101-1.1719.4102h-23.95021c-.50757 0-.90335-.137-1.18652-.4102-.27823-.2733-.41788-.6594-.41797-1.1572v-3.35448h-.797855c-.156146 0-.283229-.0372-.380859-.11035-.097656-.07812-.1640626-.17089-.1982422-.27832-.03412477-.11215-.03601974-.22181-.006836-.3291.0292951-.1123.0976682-.20508.2050782-.27832l4.708984-3.28906c.11714-.07809.24421-.13672.38086-.17578.13666-.04393.28327-.06541.43945-.06543h4.56252l3.7363-2.9375c.3076-.244044.6153-.366213.9229-.366213zm7.9687 7.830073v3.35448c0 .1522-.0145.2936-.041.4248h3.8125c.2244 0 .3955-.0588.5127-.1758.122-.1219.1835-.298.1836-.5273v-3.07618zm-20.39061 0v3.07618c.00008.2293.05867.4054.17578.5273.11718.117.28834.1758.51269.1758h3.8125c-.02603-.1312-.04098-.2726-.04101-.4248v-3.35448zm12.42191-6.55566c-.1172 0-.2246.04199-.3223.125l-6.49707 5.09082v4.41602c.00008.2293.05867.4054.17578.5273.11715.1171.28827.1758.51269.1758h4.2266v-3.25974c0-.15132.0459-.27345.1386-.36621.0977-.09274.2198-.13864.3662-.13868h2.8125c.1465 0 .2666.0459.3594.13868.0927.09275.1387.21492.1387.36621v3.25974h4.2266c.2244 0 .3955-.0587.5127-.1758.1171-.1219.1757-.298.1757-.5273v-4.41797l-6.4892-5.08887c-.1074-.08294-.2199-.12493-.3369-.125zm9.1455 5.55176h3.8984l-3.581-2.46094c-.0389-.02917-.0734-.04581-.1026-.05078-.0292-.00487-.0734-.0078-.1318-.00781h-3.2871zm-18.36722-2.51953c-.0585 0-.10257.00293-.13183.00781-.02924.00494-.0636.02157-.10254.05078l-3.57422 2.46094h3.8916l3.2041-2.51953z" fill="#000"/></svg>