<svg fill="none" height="18" viewBox="0 0 18 18" width="18" xmlns="http://www.w3.org/2000/svg"><path d="m2.74023 2.54883c.26-.1997.63994-.1593.83985.10058.19985.2599.1601.63981-.09961.83985 0 0-.41082.31976-.59082.50976-.35998.37999-.63962.83038-.84961 1.36036-.20994.52987-.30953 1.11971-.30957 1.76953 0 .99.2698 1.99047.7998 2.98049.55 1.0199 1.3299 2.0303 2.33985 2.9902 1.01996.9899 2.2402 1.9399 3.62011 2.8399.11995.0799.25019.1499.37012.2099.07972.0398.12957.0498.13965.0498 0 0 .04.0001.12988-.0498.12987-.0599.25999-.1398.37989-.2197.57993-.38 1.12993-.7605 1.62983-1.1504.26-.2.6409-.1497.8409.1103.1996.26.1495.64-.1104.8399-.52.4-1.1.8002-1.7099 1.2002-.17001.11-.33007.2-.50004.29-.23997.12-.45018.1699-.66016.1699v.0293c-.19999 0-.42041-.0599-.65039-.1699-.17983-.0899-.3499-.1801-.50977-.29-1.43984-.9299-2.72989-1.9396-3.7998-2.9795-1.08991-1.0599-1.94958-2.1602-2.55957-3.29-.619941-1.15993-.940369-2.35997-.940431-3.54985 0-.79982.129766-1.54008.389649-2.20996.260002-.67.630822-1.26 1.090822-1.75.23001-.24.66973-.59086.71972-.63086zm2.75-1.959963c.20986.03003.40974.180282.50977.370117.05999.119976.02029 2.119606.03027 2.240236.00999.11988.00002.48937 0 .63965.01.23991-.01028.55019-.03027.95996-.01.27994-.02981.56036-.0498.82031-.01999.37979-.04978.7098-.04981.87988l.05957 3.40039v.01954s.01027.0205.03027.0205c.04004.00004.11045.00999.24024 0 .09981-.01.21934-.03064.3291-.06054h.04004c.04-.01.18066 0 .18066 0h.17969c.11994 0 .28992-.01995.59961 0 .11988 0 .25022.02047.37012.0205.24984.02998.4401.03028.58008.03028h.19043c.21-.7.46972-1.37047.71972-1.98047l.08985-.24024c.23997-.57994.49063-1.19009.68063-1.79003l.0293-.04981c.11-.15.3406-.41.6006-.5.1399-.04985.2895-.03958.3994.03027.1.06996.1705.14966.2305.26954l.0498.12011c.32 1.0799.7798 2.1801 1.2197 3.25l.1504.37989-.0097.01074.0195.05957c.4899 1.18994 1.4101 3.49964 1.7002 4.71974.04.19.0595.3505.0595.4805 0 .1697-.0395.2996-.1093.3896-.08.1-.1904.1204-.3604.1504h-.0996c-.0599-.01-.1101-.0201-.1699-.04-.16-.06-.2904-.1906-.3604-.3506-.0158-.0445-.8701-2.1797-.8701-2.1797l-.5-1.5401c-.4599-.1299-.9298-.1298-1.2998-.1298-.19 0-.3901.0102-.5801.0302h-.1298c-.22003.02-.43017.0193-.62016.0293-.02.07-.03957.1606-.05957.2705-.03.19-.08012.4402-.12012.7002l-.02051.1201c-.04998.2999-.11017.61-.16015.8799-.0699.3095-.11921.4996-.15918.5996-.14.29-.4409.3599-.6709.3399-.12974-.0101-.23923-.0602-.3291-.1201-.11-.08-.16016-.1999-.16016-.3399l.5293-2.4892c-.08006-.01-.2201-.0108-.37988-.0108-.2599 0-.55976.0101-.84961.0401h-.32032c-.23989.01-.47976.0302-.67968.0302-.35954.02-.56958.02-.67969 0-.25986-.0599-.46006-.1301-.58008-.25-.12-.11-.18043-.2702-.19043-.4502-.00997-.1499.02005-.3402.04004-.49019.02997-.16987.05956-.34968.05957-.51953v-2.12989c0-1.07.00027-2.17051.03027-3.27051.00003-.0806.00999-.43009 0-.5-.01972-.04391-.00002-.84824 0-.70996-.01-.12207-.02938-1.5902.06055-1.790036.11007-.229811.33999-.410094.58984-.370117zm4.54007 1.760743c1.1799-.80994 2.9094-.88991 4.3193-.29004.62.26 1.1709.64965 1.6309 1.13965.4599.48997.8298 1.08008 1.0898 1.75.26.66996.3896 1.41001.3897 2.20996 0 1.18985-.3196 2.37995-.9395 3.54982-.11.1999-.3203.3202-.5303.3203v-.0303c-.0999 0-.1903-.0194-.2802-.0693-.29-.16-.4003-.5206-.2403-.8106.53-.98984.8007-1.98956.8008-2.97945 0-.65-.1005-1.24051-.3105-1.77051-.2-.5198-.49-.97947-.8399-1.35937-.35-.37-.7705-.66036-1.2305-.86036-.4699-.19991-.9701-.2998-1.5-.2998-.6598.00006-1.2.15955-1.6699.47949-.4899.32999-.86969.77036-1.17966 1.32031-.10002.18995-.31031.30957-.53027.30957-.21979-.0001-.41931-.1198-.5293-.30957-.19-.35-.42067-.65015-.68067-.91015-.14996-.14994-.31029-.28043-.49023-.40039-.26952-.19007-.33893-.55929-.15918-.8291.18-.27.56008-.34016.83008-.16016.22984.15992.44954.34016.64941.54004.12992.12992.25019.25951.37012.39941.29998-.35995.64032-.67948 1.0303-.93945zm-.10745 7.5498 1.84765.03028c-.01-.07-.0303-.18078-.0703-.30078-.07-.23999-.1999-.59013-.3398-.95996-.13-.32995-.28-.69007-.42-1-.04-.11991-.0909-.21985-.1308-.29981z" fill="#000"/></svg>