<svg fill="none" height="16" viewBox="0 0 25 16" width="25" xmlns="http://www.w3.org/2000/svg"><path d="m5.56641 8.88164c-.50293 0-.96192-.13428-1.37696-.40283-.41504-.27344-.74707-.63721-.99609-1.09131s-.37354-.95703-.37354-1.50879c0-.54199.12452-1.03516.37354-1.47949.24902-.44922.58105-.80567.99609-1.06934.41504-.26855.87403-.40283 1.37696-.40283.50781 0 .96923.13184 1.38427.39551s.74463.61767.98877 1.06201c.24903.44434.37354.9375.37354 1.47949 0 .55176-.12451 1.05713-.37354 1.51612-.24414.45898-.57617.82519-.99609 1.09863-.41504.26855-.87402.40283-1.37695.40283zm0-1.09131c.30273 0 .57861-.08545.82763-.25635.25391-.17578.45655-.40771.60791-.6958.15137-.29297.22705-.61767.22705-.97412 0-.34668-.07568-.65918-.22705-.9375-.14648-.27832-.34668-.49804-.60058-.65918-.24903-.16601-.52735-.24902-.83496-.24902-.30274 0-.57862.08301-.82764.24902-.24902.16602-.44922.39063-.60059.67383-.15136.27832-.22705.59082-.22705.9375 0 .35156.07569.67383.22705.9668.15137.28808.35157.51758.60059.68847.25391.1709.52978.25635.82764.25635zm-4.07227 7.80757c-.498046 0-.871581-.1025-1.120605-.3076-.249023-.2002-.373535-.5053-.373535-.9155 0-.6055.144043-1.1865.432129-1.7432.288086-.5615.686031-1.0595 1.193851-1.4941.51269-.4395 1.10351-.7861 1.77246-1.04.67383-.25395 1.39404-.3809 2.16064-.3809.40528 0 .79834.03662 1.1792.10986.38574.06836.7544.17334 1.10596.31494.35644.1367.69092.3076 1.00342.5127-.16114.1172-.31006.2417-.44678.3735-.13672.127-.26367.2637-.38086.4102-.23926-.1416-.49072-.2588-.7544-.3516-.25878-.0927-.53222-.1635-.82031-.2124-.2832-.0488-.57861-.0732-.88623-.0732-.5957 0-1.16211.0976-1.69922.293-.53711.1904-1.01318.4516-1.42822.7836-.41504.3272-.74219.7007-.98144 1.1207-.23926.4199-.35889.8569-.35889 1.311 0 .0732.01709.1245.05127.1538.03906.0342.09521.0513.16846.0513h5.36132c-.02441.2246.01953.437.13184.6372.11719.2002.26367.3491.43945.4467zm12.50976-6.78218c-.581 0-1.1108-.15381-1.5893-.46142-.4786-.30762-.8619-.72022-1.15-1.2378-.2832-.52246-.4248-1.09619-.4248-1.72119 0-.62011.1416-1.18408.4248-1.69189.2881-.50781.6714-.91309 1.15-1.21582.4785-.30274 1.0083-.4541 1.5893-.4541.5859 0 1.1182.14892 1.5967.44677.4785.29786.8594.70069 1.1426 1.2085.2832.50293.4248 1.06689.4248 1.69189 0 .62989-.1441 1.20606-.4322 1.72852-.2832.51758-.664.93262-1.1425 1.24512-.4786.30761-1.0083.46142-1.5894.46142zm0-1.10595c.3613 0 .6909-.10254.9888-.30762.3027-.20996.5444-.49072.7251-.84229.1806-.35644.271-.74951.271-1.1792 0-.4248-.0904-.80566-.271-1.14257-.1758-.3418-.4151-.61036-.7178-.80567-.2979-.19531-.6299-.29297-.9961-.29297-.3613 0-.6934.1001-.9961.3003-.2978.19531-.5371.46386-.7178.80566-.1806.3418-.271.7251-.271 1.1499 0 .42969.0904.82031.271 1.17188.1856.35156.4273.62988.7251.83496.3028.20508.6324.30762.9888.30762zm-4.5996 7.88813c-1.20118 0-1.80176-.3906-1.80176-1.1718 0-.4785.14648-.9888.43945-1.5308s.71533-1.0522 1.26709-1.5307c.55664-.4834 1.22802-.8765 2.01412-1.1792.7911-.30278 1.6846-.45415 2.6807-.45415.9912 0 1.8799.15137 2.666.45415.791.3027 1.4624.6958 2.0142 1.1792.5566.4785.9814.9887 1.2744 1.5307s.4394 1.0523.4394 1.5308c0 .7812-.5981 1.1718-1.7944 1.1718zm-.35157-1.1059h9.90237c.0928 0 .1587-.0147.1977-.044.044-.0293.066-.083.066-.1611 0-.3027-.1148-.6494-.3443-1.04-.2246-.3907-.5591-.7691-1.0034-1.1353s-.9912-.6689-1.6406-.9082c-.6446-.2441-1.3867-.3662-2.2266-.3662-.8398 0-1.5845.1221-2.2339.3662-.6494.2393-1.1963.542-1.6406.9082-.43946.3662-.77393.7446-1.00342 1.1353-.2295.3906-.34424.7373-.34424 1.04 0 .0781.01953.1318.05859.1611.04395.0293.11475.044.2124.044zm10.37107-6.09376c-.1513-.10254-.2368-.23437-.2563-.39551-.0196-.16601.0268-.3247.1391-.47607.21-.29785.3736-.63965.4908-1.02539.1172-.39063.1757-.79834.1757-1.22315 0-.4248-.0585-.83251-.1757-1.22314-.1123-.39062-.2759-.73242-.4908-1.02539-.1171-.15137-.166-.30762-.1464-.46875.0244-.16602.1123-.30029.2636-.40283.1221-.08789.2588-.11719.4102-.08789.1514.02929.2759.1123.3735.24902.2832.37598.5029.82275.6592 1.34033.1611.51758.2417 1.05713.2417 1.61865 0 .56153-.0806 1.10108-.2417 1.61866-.1563.51758-.376.96191-.6592 1.333-.0976.14161-.2221.22706-.3735.25635-.1514.02442-.2881-.00488-.4102-.08789zm2.71 1.91166c-.1318-.0928-.2075-.2173-.2271-.37357-.0195-.15625.022-.30762.1245-.4541.3956-.57129.7032-1.21827.9229-1.94092.2246-.72754.3369-1.48194.3369-2.26319s-.1098-1.53564-.3296-2.26318c-.2197-.72754-.5298-1.37451-.9302-1.94092-.1025-.151364-.144-.302731-.1245-.454098.0196-.15625.0953-.280762.2271-.373535.1367-.092774.2808-.124512.4321-.095215.1514.029297.2759.114746.3736.256348.4736.63477.8398 1.37939 1.0986 2.23389.2588.85449.3882 1.73339.3882 2.63671 0 .90333-.1319 1.77979-.3955 2.6294-.2588.84961-.6226 1.59668-1.0913 2.24118-.0977.1367-.2222.2198-.3736.2491-.1513.0293-.2954 0-.4321-.0879z" fill="#000"/></svg>