<svg fill="none" height="16" viewBox="0 0 16 16" width="16" xmlns="http://www.w3.org/2000/svg"><path d="m.827637 14.7627c-.263672 0-.46875-.0732-.615235-.2197-.1416012-.1465-.212402-.3565-.212402-.6299v-9.85109c0-.24902.0512695-.46142.153809-.63721.102539-.18066.26123-.33203.476074-.4541l3.808597-2.167966c.22949-.136718.48095-.205078.75439-.205078.26856 0 .51514.06836.73975.205078l3.97705 2.438966 3.88183-2.16065c.1221-.06347.2319-.109859.3296-.139155.0977-.03418.1929-.05127.2856-.05127.2637 0 .4663.073242.6079.219725.1465.14649.2198.35401.2198.62256v9.86569c0 .2442-.0513.4566-.1538.6372-.1026.1758-.2637.3247-.4834.4468l-3.8306 2.1753c-.2197.127-.4639.1904-.7324.1904-.28322 0-.55666-.0732-.82033-.2197l-4.0503-2.2705-3.72802 2.0068c-.11719.0684-.22461.1172-.32227.1465-.09766.0342-.19287.0513-.285643.0513zm3.859863-3.3691v-9.35307c-.04395.02441-.08789.04883-.13184.07324-.03906.02441-.083.04883-.13183.07324l-3.00293 1.75781c-.08789.04883-.15137.10743-.19043.17579-.03418.06347-.05127.13916-.05127.22705v8.78174c0 .0781.03174.1172.09521.1172.02442 0 .06104-.0122.10987-.0366zm1.1792.1171 3.17871 1.7945c.05371.0293.10742.0561.16113.0805.05371.0293.10742.0586.16114.0879v-9.15524l-3.26661-1.99219c-.03906-.02441-.07812-.04638-.11718-.06592-.03907-.02441-.07813-.04638-.11719-.06591zm4.6802 2.0948.1611-.0879c.0586-.0293.1148-.0611.1685-.0952l2.937-1.7066c.0879-.0488.1489-.1074.1831-.1758.039-.0683.0586-.1464.0586-.2343v-8.78177c0-.03907-.0098-.06836-.0293-.08789-.0147-.01954-.0391-.0293-.0733-.0293-.0195 0-.0537.01221-.1025.03662l-3.3032 1.80176z" fill="#000"/></svg>