<svg fill="none" height="17" viewBox="0 0 17 17" width="17" xmlns="http://www.w3.org/2000/svg"><path d="m0 13.9287v-6.35009c0-.43457.129395-.77148.388184-1.01074.263671-.24414.627436-.36621 1.091306-.36621h1.75049v-3.49365c0-.75684.19043-1.32324.57129-1.69922.38574-.38086.96191-.57129 1.72852-.57129h8.82571c.7666 0 1.3403.19043 1.7212.57129.3857.37598.5786.94238.5786 1.69922v11.16939c0 .752-.1929 1.316-.5786 1.6919-.3809.3809-.9546.5713-1.7212.5713h-12.14359c-.74218 0-1.296383-.1855-1.662594-.5566s-.549316-.9229-.549316-1.6553zm1.1792 0c0 .293.09766.5371.29297.7324.20019.2002.44678.3003.73974.3003.28321 0 .52247-.0976.71778-.2929.20019-.1905.30029-.4371.30029-.7398v-6.54784h-1.61865c-.13672 0-.24414.03906-.32227.11719-.07324.07324-.10986.17578-.10986.30761zm2.98096 1.0327h10.17334c.3662 0 .647-.0976.8423-.2929.2002-.1905.3003-.4761.3003-.857v-11.03757c0-.38086-.1001-.66895-.3003-.86426-.1953-.19531-.4761-.29297-.8423-.29297h-8.78174c-.36621 0-.64942.09766-.84961.29297-.19531.19531-.29297.4834-.29297.86426v11.08157c0 .415-.08301.7837-.24902 1.1059zm2.15332-10.15867c-.13184 0-.2417-.04394-.32959-.13183-.08789-.09278-.13184-.20264-.13184-.32959 0-.12207.04395-.22461.13184-.30762.08789-.08789.19775-.13183.32959-.13183h7.27292c.127 0 .2344.04394.3223.13183.0879.08301.1318.18555.1318.30762 0 .12695-.0439.23681-.1318.32959-.0879.08789-.1953.13183-.3223.13183zm0 2.57813c-.13184 0-.2417-.0415-.32959-.12451-.08789-.08789-.13184-.19531-.13184-.32227 0-.12695.04395-.23437.13184-.32226s.19775-.13184.32959-.13184h7.27292c.127 0 .2344.04395.3223.13184s.1318.19531.1318.32226c0 .12696-.0439.23438-.1318.32227-.0879.08301-.1953.12451-.3223.12451zm.43213 5.22214c-.28321 0-.50538-.0781-.66651-.2343-.15625-.1612-.23437-.3809-.23437-.6592v-1.74319c0-.2832.07812-.50293.23437-.65918.16113-.16113.3833-.2417.66651-.2417h1.89697c.27832 0 .4956.08057.65185.2417.16114.15625.2417.37598.2417.65918v1.74319c0 .2783-.08056.498-.2417.6592-.15625.1562-.37353.2343-.65185.2343zm4.10889-2.63669c-.1318 0-.2417-.04151-.3296-.12451-.083-.08789-.1245-.19287-.1245-.31494 0-.13184.0415-.2417.1245-.32959.0879-.08789.1978-.13184.3296-.13184h2.7246c.1318 0 .2393.04395.3223.13184.0879.08789.1318.19775.1318.32959 0 .12207-.0439.22705-.1318.31494-.083.083-.1905.12451-.3223.12451zm0 2.63669c-.1318 0-.2417-.0415-.3296-.1245-.083-.0879-.1245-.1929-.1245-.3149 0-.1319.0415-.2417.1245-.3296.0879-.0879.1978-.1319.3296-.1319h2.7246c.1318 0 .2393.044.3223.1319.0879.0879.1318.1977.1318.3296 0 .122-.0439.227-.1318.3149-.083.083-.1905.1245-.3223.1245z" fill="#000"/></svg>