<svg fill="none" height="17" viewBox="0 0 14 17" width="14" xmlns="http://www.w3.org/2000/svg"><path d="m4.2041 3.10107c0-.50781.12207-.96923.36621-1.38427.24903-.41992.58106-.754398.9961-1.003421.41504-.249024.87646-.373535 1.38427-.373535.5127 0 .97657.124511 1.39161.373535.41503.249023.74462.583501.98876 1.003421.24903.41504.37354.87646.37354 1.38427 0 .42969-.09033.82764-.271 1.19385-.18066.36621-.42724.67871-.73974.9375s-.66651.43701-1.06201.53467v4.63621c0 .542-.02198 1.0205-.06592 1.4356-.04395.415-.1001.7641-.16846 1.0473-.06348.2832-.13672.4981-.21973.6446-.07812.1416-.1538.2124-.22705.2124-.07324 0-.14892-.0708-.22705-.2124-.07812-.1465-.15136-.3614-.21972-.6446s-.12452-.6323-.16846-1.0473c-.04395-.4151-.06592-.8936-.06592-1.4356v-4.63621c-.39551-.09766-.74951-.27588-1.06201-.53467s-.55908-.57129-.73975-.9375c-.17578-.36621-.26367-.76416-.26367-1.19385zm1.96289.14649c.25879 0 .48096-.09277.66651-.27832.18554-.19043.27832-.4126.27832-.66651 0-.2539-.09278-.47363-.27832-.65918-.18555-.18554-.40772-.27832-.66651-.27832-.24902 0-.46875.09278-.65918.27832-.18554.18555-.27832.40528-.27832.65918 0 .25391.09278.47608.27832.66651.19043.18555.41016.27832.65918.27832zm.79102 13.17624c-1.10352 0-2.0874-.0879-2.95166-.2636-.85938-.1709-1.58692-.4053-2.18262-.7032-.5957-.2929-1.049804-.6274-1.362304-1.0034-.307617-.3711-.461426-.7593-.461426-1.1645 0-.3858.109863-.7398.32959-1.062.219726-.3272.512695-.6177.87891-.8716.36621-.2539.77148-.4688 1.21582-.6446.44922-.1806.90332-.3173 1.3623-.4101.46387-.0977.896-.1465 1.29639-.1465v1.0693c-.35156.0049-.73487.0562-1.1499.1538-.41504.0928-.80811.2222-1.1792.3882-.3711.166-.67627.3638-.91553.5933-.23438.2295-.35156.4809-.35156.7544 0 .3174.13427.6079.40283.8716.27344.2636.6543.4907 1.14258.6811.49316.1904 1.07177.3369 1.73584.4395.66894.1074 1.39892.1611 2.18994.1611.78613 0 1.51123-.0537 2.17529-.1611.66895-.1026 1.2476-.2515 1.7358-.4468.4932-.1904.8765-.4175 1.1499-.6812.2735-.2587.4102-.5468.4102-.8642 0-.2735-.1196-.5249-.3589-.7544-.2392-.2295-.5444-.4273-.9155-.5933s-.7642-.2954-1.17921-.3882c-.41016-.0976-.79346-.1489-1.14991-.1538v-1.0693c.40528 0 .83741.0488 1.29642.1465.4638.0928.9179.2295 1.3623.4101.4492.1758.8569.3907 1.2231.6446s.6568.5444.8716.8716c.2197.3222.3296.6762.3296 1.062 0 .4052-.1538.7934-.4614 1.1645-.3077.376-.7593.7105-1.355 1.0034-.5957.2979-1.3257.5323-2.18996.7032-.85937.1757-1.84082.2636-2.94433.2636z" fill="#000"/></svg>