<svg fill="none" height="39" viewBox="0 0 288 39" width="288" xmlns="http://www.w3.org/2000/svg" xmlns:xlink="http://www.w3.org/1999/xlink"><clipPath id="a"><path d="m0 0h288v38.1457h-288z"/></clipPath><g clip-path="url(#a)" fill="#000"><path d="m14.821 14.8134v-.0824c.3256-.1195 3.6146-2.1915 3.6146-6.37272 0-4.50251-3.8165-7.546757-7.9999-7.546757h-10.4357v29.218977h10.7613c4.4677 0 8.5687-3.3697 8.5687-8.1153 0-4.7455-3.7341-6.8588-4.5049-7.1018zm-11.33007-10.83817h6.49553c2.80264 0 4.78924 1.98967 4.78924 4.62609 0 2.63638-1.6651 4.62608-4.78924 4.62608h-6.49553zm6.69747 22.88737h-6.69747v-10.5498h6.69747c3.6558 0 5.4816 2.3934 5.4816 5.277s-1.8258 5.277-5.4816 5.277z"/><path d="m42.872 8.92675h-3.2478v3.24605h-.0824c-1.7063-2.43452-4.4265-3.65387-7.188-3.65387-5.8072 0-9.7845 4.38307-9.7845 10.95767 0 6.5745 3.9773 10.9576 9.7845 10.9576 2.7615 0 5.5229-1.0134 7.2292-3.448h.0824c0 .8939.0825 2.2327.202 3.0443h3.1653c-.1236-.7292-.1607-2.1916-.1607-3.5716zm-10.0277 18.42195c-3.9773 0-6.8623-3.3696-6.8623-7.8721 0-4.5026 2.8809-7.8722 6.8623-7.8722s6.8623 3.3696 6.8623 7.8722c0 4.5025-2.8809 7.8721-6.8623 7.8721z"/><path d="m57.6515 11.5261c2.679 0 5.0324 1.4624 5.9268 4.6261l3.4085-.4861c-1.3395-4.8691-4.8716-7.14305-9.3394-7.14305-6.2936 0-10.1513 4.78675-10.1513 10.95765 0 6.1708 3.8577 10.9576 10.1513 10.9576 4.4678 0 7.9999-2.2739 9.3394-7.1431l-3.4085-.486c-.8944 3.1637-3.2478 4.626-5.9268 4.626-4.2616 0-6.7387-3.4891-6.7387-7.9545 0-4.4655 2.4771-7.9546 6.7387-7.9546z"/><path d="m88.1431 8.92675h-4.7109l-8.6469 8.93085h-.0825v-17.8576h-3.2477v30.0305h3.2477v-10.2285h.0825l9.2569 10.2285h4.7892l-10.6788-11.2831z"/><path d="m100.038 26.3766h-.0824l-6.4172-17.44985h-3.8948l8.445 21.10375-3.6146 8.1152h4.0185l11.8575-29.21895h-3.738z"/><path d="m132.681 8.92675h-3.248v3.24605h-.083c-1.706-2.43452-4.426-3.65387-7.188-3.65387-5.807 0-9.784 4.38307-9.784 10.95767 0 6.5745 3.977 10.9576 9.784 10.9576 2.762 0 5.523-1.0134 7.23-3.448h.082c0 .8939.082 2.2327.202 3.0443h3.165c-.123-.7292-.16-2.1916-.16-3.5716zm-10.028 18.42195c-3.977 0-6.862-3.3696-6.862-7.8721 0-4.5026 2.885-7.8722 6.862-7.8722s6.862 3.3696 6.862 7.8722c0 4.5025-2.881 7.8721-6.862 7.8721z"/><path d="m141.851 11.9298h-.083v-3.00305h-3.247v21.10375h3.247v-11.9298c0-3.8146 1.665-6.2492 5.886-6.2492.408 0 .853.0412 1.257.1236v-3.16369c-.404-.08239-.894-.11946-1.422-.11946-2.518 0-4.711 1.21934-5.642 3.24605z"/><path d="m168.649 12.1728h-.083c-1.706-2.43453-4.344-3.65387-7.105-3.65387-5.807 0-9.702 4.38307-9.702 10.95757 0 6.5746 3.899 10.9577 9.702 10.9577 2.761 0 5.399-1.2194 7.105-3.6539h.083v3.246h3.248v-30.0263h-3.248zm-6.698 15.1759c-4.059 0-6.78-3.1637-6.78-7.8722 0-4.7084 2.721-7.8721 6.78-7.8721 4.505 0 6.78 3.6539 6.78 7.8721 0 4.2183-2.275 7.8722-6.78 7.8722z"/><path d="m204.663 20.0244h-.042l-5.531-12.64243h-1.896v14.85043h1.773v-11.0771h.041l4.851 11.0771h1.55l4.867-11.0771h.041v11.0771h1.777v-14.85043h-1.9z"/><path d="m221.895 17.6105c0 1.8372-1.195 3.2584-2.951 3.2584-1.504 0-2.415-.9681-2.415-2.9083v-6.4551h-1.653v6.5581c0 2.6405 1.319 4.3748 3.775 4.3748 1.072 0 2.354-.4737 3.199-1.6107h.041v1.4006h1.653v-10.7269h-1.653v6.1049z"/><path d="m228.085 6.97004h-1.652v15.26236h1.652z"/><path d="m234.07 7.8969-1.653.61791v2.99069h-2.477v1.4871h2.477v5.7342c0 2.7641 1.509 3.588 3.467 3.588.432 0 .865-.0824 1.174-.206v-1.5694c-.288.1235-.68.2059-1.009.2059-1.113 0-1.983-.3089-1.983-1.899v-5.8578h2.992v-1.4871h-2.992v-3.60862z"/><path d="m240.153 7.176c-.7 0-1.236.55612-1.236 1.23582 0 .67971.536 1.23582 1.236 1.23582.701 0 1.237-.53552 1.237-1.23582 0-.70029-.536-1.23582-1.237-1.23582z"/><path d="m240.982 11.5055h-1.653v10.7269h1.653z"/><path d="m250.989 17.6105c0 1.8372-1.196 3.2584-2.951 3.2584-1.505 0-2.416-.9681-2.416-2.9083v-6.4551h-1.652v6.5581c0 2.6405 1.319 4.3748 3.775 4.3748 1.072 0 2.353-.4737 3.198-1.6107h.042v1.4006h1.652v-10.7269h-1.652v6.1049z"/><path d="m260.625 11.2995c-1.072 0-2.56.515-3.405 1.6107h-.041v-1.4047h-1.653v10.7269h1.653v-6.1049c0-1.8373 1.216-3.2585 3.075-3.2585 1.488 0 2.497.7827 2.497 3.1967v6.1667h1.653v-6.5581c0-2.8671-1.55-4.3707-3.775-4.3707z"/><path d="m268.217 7.176c-.701 0-1.237.55612-1.237 1.23582 0 .67971.536 1.23582 1.237 1.23582s1.236-.53552 1.236-1.23582c0-.70029-.535-1.23582-1.236-1.23582z"/><path d="m269.045 11.5055h-1.652v10.7269h1.652z"/><path d="m275.235 7.8969-1.653.61791v2.99069h-2.477v1.4871h2.477v5.7342c0 2.7641 1.509 3.588 3.467 3.588.432 0 .865-.0824 1.174-.206v-1.5694c-.288.1235-.68.2059-1.009.2059-1.113 0-1.983-.3089-1.983-1.899v-5.8578h2.992v-1.4871h-2.992v-3.60862z"/><path d="m282.242.811523h-89.293c-3.173 0-5.758 2.582867-5.758 5.754807v17.71347c0 3.1719 2.585 5.7548 5.758 5.7548h89.293c3.174 0 5.758-2.5788 5.758-5.7548v-17.71347c0-3.17194-2.58-5.754807-5.758-5.754807zm4.501 23.464177c0 2.4798-2.02 4.4983-4.501 4.4983h-89.293c-2.481 0-4.501-2.0185-4.501-4.4983v-17.70937c0-2.47988 2.02-4.49839 4.501-4.49839h89.293c2.481 0 4.501 2.01851 4.501 4.49839v17.71347z"/></g></svg>